<svg xmlns="http://www.w3.org/2000/svg" xmlns:xlink="http://www.w3.org/1999/xlink" fill="none" version="1.1" width="16.5" height="19.5" viewBox="0 0 16.5 19.5"><path d="M7.75,0C7.3357863,0,7,0.33578643,7,0.75C7,0.75,7,4.75,7,4.75C7,4.7498674,7,4.7501326,7,4.75C7,4.75,7.0000005,12.009517,7.0000005,12.009517C6.25878,11.379868,5.2987514,11,4.25,11C1.9027898,11,0,12.90279,0,15.25C0,17.59721,1.9027898,19.5,4.25,19.5C6.5972099,19.5,8.5,17.59721,8.5,15.25C8.5,15.131193,8.4951248,15.013525,8.4855642,14.897184C8.4950342,14.849591,8.500001,14.800376,8.500001,14.75C8.500001,14.75,8.5,5.5,8.5,5.5C8.5,5.5,13.75,5.5,13.75,5.5C15.268784,5.5,16.5,4.2687831,16.5,2.75C16.5,1.2312169,15.268784,0,13.75,0C13.75,0,7.75,0,7.75,0ZM8.5,4C8.5,4,13.75,4,13.75,4C14.440356,4,15,3.440356,15,2.75C15,2.0596442,14.440356,1.5,13.75,1.5C13.75,1.5,8.5,1.5,8.5,1.5C8.5,1.5,8.5,4,8.5,4ZM4.25,12.5C2.7312169,12.5,1.5,13.731217,1.5,15.25C1.5,16.768784,2.7312169,18,4.25,18C5.7687831,18,7,16.768784,7,15.25C7,13.731217,5.7687831,12.5,4.25,12.5Z" fill-rule="evenodd" fill="#000000" fill-opacity="1"/></svg>