<svg xmlns="http://www.w3.org/2000/svg" xmlns:xlink="http://www.w3.org/1999/xlink" fill="none" version="1.1" width="21.39104461669922" height="19.348011016845703" viewBox="0 0 21.39104461669922 19.348011016845703"><path d="M5.2307072,0C4.6455889,0,4.099184,0.29242665,3.7746189,0.77927446C3.7746189,0.77927446,0.18539634,6.1631083,0.18539634,6.1631083C-0.034336716,6.4927082,-0.060613886,6.9147768,0.11654066,7.2690859C2.0806475,11.1973,4.8101997,14.693246,8.1447611,17.551441C8.1447611,17.551441,9.8954782,19.052055,9.8954782,19.052055C10.355854,19.446663,11.035192,19.446665,11.495567,19.052055C11.495567,19.052055,13.246285,17.551441,13.246285,17.551441C16.580847,14.693246,19.310398,11.1973,21.274506,7.2690859C21.45166,6.9147763,21.425381,6.4927073,21.205648,6.1631083C21.205648,6.1631083,17.616426,0.77927464,17.616426,0.77927464C17.291861,0.29242706,16.745457,0,16.160339,0C16.160339,0,5.2307072,0,5.2307072,0ZM5.0226946,1.6113248C5.0690608,1.5417752,5.1471186,1.5,5.2307072,1.5C5.2307072,1.5,7.5705171,1.5,7.5705171,1.5C7.5705171,1.5,5.6553979,6.0962853,5.6553979,6.0962853C5.6112819,6.2021642,5.5779896,6.3113503,5.5555496,6.4222393C4.851716,6.369854,4.1484838,6.3066936,3.4460993,6.2327585C3.4460993,6.2327585,2.0403852,6.0847888,2.0403852,6.0847888C2.0403852,6.0847888,5.0226946,1.6113248,5.0226946,1.6113248ZM1.9741776,7.5861068C3.76758,10.876075,6.1357331,13.821374,8.9687376,16.281244C8.9687376,16.281244,5.8432717,7.9466691,5.8432717,7.9466691C4.9909353,7.8880754,4.1393952,7.8140244,3.289072,7.7245169C3.289072,7.7245169,1.9741776,7.5861068,1.9741776,7.5861068ZM7.4803324,8.0401621C7.4803324,8.0401621,10.695526,16.614012,10.695526,16.614012C10.695526,16.614012,13.91072,8.0401621,13.91072,8.0401621C11.768366,8.1376209,9.6226864,8.1376209,7.4803324,8.0401621ZM15.54778,7.9466681C15.54778,7.9466681,12.422317,16.281237,12.422317,16.281237C15.255318,13.821366,17.62347,10.876071,19.416868,7.5861058C19.416868,7.5861058,18.101965,7.7245169,18.101965,7.7245169C17.251646,7.814024,16.400112,7.8880744,15.54778,7.9466681ZM19.35066,6.0847878C19.35066,6.0847878,17.944939,6.2327585,17.944939,6.2327585C17.242559,6.3066931,16.539331,6.369853,15.835503,6.4222383C15.813063,6.3113499,15.779771,6.2021637,15.735655,6.0962853C15.735655,6.0962853,13.820536,1.5,13.820536,1.5C13.820536,1.5,16.160339,1.5,16.160339,1.5C16.243927,1.5,16.321983,1.5417752,16.368351,1.611325C16.368351,1.611325,19.35066,6.0847878,19.35066,6.0847878ZM14.287223,6.52005C11.894372,6.6443243,9.4966793,6.6443248,7.1038289,6.520051C7.1038289,6.520051,9.1955166,1.5,9.1955166,1.5C9.1955166,1.5,12.195536,1.5,12.195536,1.5C12.195536,1.5,14.287223,6.52005,14.287223,6.52005Z" fill-rule="evenodd" fill="#000000" fill-opacity="1"/></svg>