<svg xmlns="http://www.w3.org/2000/svg" xmlns:xlink="http://www.w3.org/1999/xlink" fill="none" version="1.1" width="17.503515243530273" height="17.5" viewBox="0 0 17.503515243530273 17.5"><path d="M1.5,8.75C1.5,4.7459354,4.7459354,1.5,8.75,1.5C12.754065,1.5,16,4.7459354,16,8.75C16,8.7836761,16.00222,8.8168344,16.006521,8.8493357C16.003305,8.8806772,16.002026,8.9125614,16.002804,8.9448853C16.00893,9.1994514,15.976326,9.5944357,15.892715,9.9718857C15.80162,10.383125,15.683007,10.619405,15.613578,10.69226C15.311677,11.00905,14.896296,11.192937,14.458815,11.203465C14.021333,11.213994,13.597589,11.050303,13.280797,10.748402C13.073661,10.551001,13.014277,10.261326,12.998076,9.5881414C12.998076,9.5881414,12.882602,4.7900176,12.882602,4.7900176C12.872636,4.3759241,12.528868,4.0483136,12.114774,4.0582795C11.70068,4.0682454,11.37307,4.4120135,11.383036,4.8261075C11.383036,4.8261075,11.399705,5.5187531,11.399705,5.5187531C10.678605,4.9267206,9.7557945,4.5713501,8.7499828,4.5713501C6.4422212,4.5713501,4.5714111,6.4421601,4.5714111,8.7499218C4.5714111,11.057682,6.4422212,12.928493,8.7499828,12.928493C10.024395,12.928493,11.165553,12.357974,11.931993,11.458412C12.017931,11.58922,12.121365,11.715532,12.245963,11.834274C12.850745,12.41063,13.659714,12.723132,14.494904,12.703032C15.330094,12.682931,16.123095,12.331876,16.69945,11.727094C17.069149,11.339162,17.256229,10.752191,17.357216,10.296293C17.465689,9.8066053,17.511557,9.2905655,17.502369,8.9087954C17.501707,8.8812904,17.499575,8.8541765,17.496044,8.8275089C17.498661,8.8020287,17.5,8.7761707,17.5,8.75C17.5,3.9175086,13.582492,0,8.75,0C3.9175086,0,0,3.9175086,0,8.75C0,13.582492,3.9175086,17.5,8.75,17.5C10.793022,17.5,12.674376,16.798885,14.163624,15.624665C14.488893,15.368202,14.54467,14.896616,14.288207,14.571347C14.031744,14.246079,13.560158,14.190301,13.234889,14.446764C12.000782,15.419815,10.444188,16,8.75,16C4.7459354,16,1.5,12.754065,1.5,8.75ZM8.7499828,6.0713501C7.270648,6.0713501,6.0714111,7.270587,6.0714111,8.7499218C6.0714111,10.229256,7.270648,11.428493,8.7499828,11.428493C10.229317,11.428493,11.428554,10.229256,11.428554,8.7499218C11.428554,7.270587,10.229317,6.0713501,8.7499828,6.0713501Z" fill-rule="evenodd" fill="#000000" fill-opacity="1"/></svg>