<?xml version="1.0" standalone="no"?><!DOCTYPE svg PUBLIC "-//W3C//DTD SVG 1.1//EN" "http://www.w3.org/Graphics/SVG/1.1/DTD/svg11.dtd"><svg t="1776867296316" class="icon" viewBox="0 0 1024 1024" version="1.1" xmlns="http://www.w3.org/2000/svg" p-id="15079" xmlns:xlink="http://www.w3.org/1999/xlink" width="16" height="16"><path d="M85.333333 256a85.333333 85.333333 0 1 1 170.666667 0 85.333333 85.333333 0 0 1-170.666667 0zM341.333333 256a42.666667 42.666667 0 0 1 42.666667-42.666667h512a42.666667 42.666667 0 1 1 0 85.333334H384a42.666667 42.666667 0 0 1-42.666667-42.666667zM85.333333 512a85.333333 85.333333 0 1 1 170.666667 0 85.333333 85.333333 0 0 1-170.666667 0zM341.333333 512a42.666667 42.666667 0 0 1 42.666667-42.666667h512a42.666667 42.666667 0 1 1 0 85.333334H384a42.666667 42.666667 0 0 1-42.666667-42.666667zM85.333333 768a85.333333 85.333333 0 1 1 170.666667 0 85.333333 85.333333 0 0 1-170.666667 0zM341.333333 768a42.666667 42.666667 0 0 1 42.666667-42.666667h512a42.666667 42.666667 0 1 1 0 85.333334H384a42.666667 42.666667 0 0 1-42.666667-42.666667z" p-id="15080"></path></svg>