<svg xmlns="http://www.w3.org/2000/svg" xmlns:xlink="http://www.w3.org/1999/xlink" fill="none" version="1.1" width="15.5" height="20.243616104125977" viewBox="0 0 15.5 20.243616104125977"><path d="M5,0.75C5,0.33578643,5.3357863,0,5.75,0L9.75,0C10.164213,0,10.5,0.33578643,10.5,0.75L10.5,1.5L14.75,1.5C15.164213,1.5,15.5,1.8357865,15.5,2.25C15.5,2.6642137,15.164213,3,14.75,3L0.75,3C0.33578643,3,0,2.6642137,0,2.25C0,1.8357865,0.33578643,1.5,0.75,1.5L5,1.5L5,0.75ZM2.4868376,5C2.1046758,5,1.7836275,5.2873516,1.7414248,5.6671762L1.5412753,7.4685216C1.1784617,10.733844,1.1784616,14.029313,1.5412751,17.294636L1.5609788,17.471968C1.7049961,18.768124,2.7095413,19.801651,4.0010777,19.982466C6.4882278,20.330666,9.0117626,20.330666,11.498913,19.982466C12.790448,19.801651,13.794994,18.768126,13.939012,17.47197L13.958715,17.294636C14.321529,14.029314,14.321529,10.733845,13.958715,7.468523L13.758566,5.6671762C13.716363,5.2873516,13.395315,5,13.013153,5L2.4868376,5ZM3.0321009,7.6341686L3.1581197,6.5L12.341871,6.5L12.46789,7.6341701C12.818471,10.7894,12.818471,13.97376,12.46789,17.12899L12.448186,17.306322C12.379885,17.921038,11.903467,18.4112,11.29094,18.496952C8.9417658,18.825838,6.5582247,18.825838,4.2090497,18.496952C3.5965235,18.4112,3.1201062,17.921038,3.0518045,17.30632L3.0321007,17.128988C2.6815197,13.973758,2.68152,10.789398,3.0321009,7.6341686ZM6.5,9.1499939C6.5,8.7357807,6.1642137,8.3999939,5.75,8.3999939C5.3357863,8.3999939,5,8.7357807,5,9.1499939L4.9999995,16.149994C4.9999995,16.564207,5.3357859,16.899994,5.7499995,16.899994C6.1642132,16.899994,6.4999995,16.564207,6.4999995,16.149994L6.5,9.1499939ZM9.75,8.3999939C10.164213,8.3999939,10.5,8.7357807,10.5,9.1499939L10.5,16.149994C10.5,16.564207,10.164213,16.899994,9.75,16.899994C9.3357859,16.899994,9,16.564207,9,16.149994L9,9.1499939C9,8.7357807,9.3357868,8.3999939,9.75,8.3999939Z" fill-rule="evenodd" fill="#000000" fill-opacity="1"/></svg>