<svg xmlns="http://www.w3.org/2000/svg" xmlns:xlink="http://www.w3.org/1999/xlink" fill="none" version="1.1" width="20.021331787109375" height="17.00030517578125" viewBox="0 0 20.021331787109375 17.00030517578125"><path d="M10.010666,0C10.010666,0,17.284294,0.20565313,17.284294,0.20565313C18.569515,0.24199122,19.632532,1.2176458,19.778688,2.4950452C20.102213,5.3226585,20.102213,8.1779404,19.778688,11.005554C19.632532,12.282954,18.569513,13.258608,17.284294,13.294946C17.284294,13.294946,11.760681,13.451119,11.760681,13.451119C11.760681,13.451119,11.760681,15.500305,11.760681,15.500305C11.760681,15.500305,15.010681,15.500305,15.010681,15.500305C15.424894,15.500305,15.760681,15.836092,15.760681,16.250305C15.760681,16.664518,15.424894,17.000305,15.010681,17.000305C15.010681,17.000305,5.0106812,17.000305,5.0106812,17.000305C4.596468,17.000305,4.2606812,16.664518,4.2606812,16.250305C4.2606812,15.836092,4.596468,15.500305,5.0106812,15.500305C5.0106812,15.500305,8.2606812,15.500305,8.2606812,15.500305C8.2606812,15.500305,8.2606812,13.45112,8.2606812,13.45112C8.2606812,13.45112,2.7370372,13.294946,2.7370372,13.294946C1.451818,13.258608,0.38879979,12.282954,0.24264427,11.005555C-0.080881491,8.1779404,-0.080881372,5.3226585,0.24264432,2.4950438C0.38879979,1.2176447,1.4518183,0.24199122,2.7370374,0.20565319C2.7370374,0.20565319,10.010666,0,10.010666,0ZM10.010666,1.5005994C10.010666,1.5005994,2.7794313,1.705054,2.7794313,1.705054C2.2402239,1.7202995,1.7942401,2.1296301,1.7329214,2.665556C1.4223596,5.3798656,1.4223595,8.1207333,1.7329214,10.835043C1.7942401,11.37097,2.2402236,11.7803,2.7794311,11.795546C2.7794311,11.795546,10.010666,12,10.010666,12C10.010666,12,17.241899,11.795546,17.241899,11.795546C17.781109,11.7803,18.227093,11.370969,18.288412,10.835042C18.598972,8.1207333,18.598972,5.3798656,18.288412,2.6655574C18.227093,2.1296303,17.781109,1.7202995,17.241899,1.7050539C17.241899,1.7050539,10.010666,1.5005994,10.010666,1.5005994Z" fill-rule="evenodd" fill="#000000" fill-opacity="1"/></svg>