<?xml version="1.0" standalone="no"?><!DOCTYPE svg PUBLIC "-//W3C//DTD SVG 1.1//EN" "http://www.w3.org/Graphics/SVG/1.1/DTD/svg11.dtd"><svg height="1024" node-id="1" sillyvg="true" template-height="1024" template-width="1024" version="1.1" viewBox="0 0 1024 1024" width="1024" xmlns="http://www.w3.org/2000/svg" xmlns:xlink="http://www.w3.org/1999/xlink"><defs node-id="85"><linearGradient gradientUnits="objectBoundingBox" id="linearGradient-2" node-id="8" spreadMethod="pad" x1="0.5" x2="0.5" y1="0" y2="1"><stop offset="0" stop-color="#72a0e8"></stop><stop offset="0.9939955" stop-color="#3981f7"></stop></linearGradient><linearGradient gradientUnits="objectBoundingBox" id="linearGradient-3" node-id="11" spreadMethod="pad" x1="0.5" x2="0.5" y1="0" y2="1"><stop offset="0.0127618965" stop-color="#b7d2ff"></stop><stop offset="1" stop-color="#93bbff"></stop></linearGradient><linearGradient gradientUnits="objectBoundingBox" id="linearGradient-4" node-id="14" spreadMethod="pad" x1="0.5" x2="0.5" y1="0" y2="1"><stop offset="0" stop-color="#72a0e8"></stop><stop offset="0.9939955" stop-color="#3981f7"></stop></linearGradient><linearGradient gradientUnits="objectBoundingBox" id="linearGradient-5" node-id="17" spreadMethod="pad" x1="0.5" x2="0.5" y1="0" y2="1"><stop offset="0.0127618965" stop-color="#b7d2ff"></stop><stop offset="1" stop-color="#93bbff"></stop></linearGradient><linearGradient gradientUnits="objectBoundingBox" id="linearGradient-6" node-id="20" spreadMethod="pad" x1="0.5" x2="0.5" y1="0" y2="1"><stop offset="0" stop-color="#72a0e8"></stop><stop offset="0.9939955" stop-color="#3981f7"></stop></linearGradient><linearGradient gradientUnits="objectBoundingBox" id="linearGradient-7" node-id="23" spreadMethod="pad" x1="0.5" x2="0.5" y1="0" y2="1"><stop offset="0.0127618965" stop-color="#b7d2ff"></stop><stop offset="1" stop-color="#93bbff"></stop></linearGradient><linearGradient gradientUnits="objectBoundingBox" id="linearGradient-8" node-id="26" spreadMethod="pad" x1="0.7733959" x2="0.21869685" y1="0.61340225" y2="-0.093007565"><stop offset="0" stop-color="#5e9bff"></stop><stop offset="1" stop-color="#e2edff"></stop></linearGradient><linearGradient gradientUnits="objectBoundingBox" id="linearGradient-9" node-id="29" spreadMethod="pad" x1="0.63044906" x2="-0.0043653743" y1="0.77715" y2="0"><stop offset="0" stop-color="#5b7fff"></stop><stop offset="0.99" stop-color="#92a9fd"></stop></linearGradient><linearGradient gradientUnits="objectBoundingBox" id="linearGradient-10" node-id="32" spreadMethod="pad" x1="0" x2="0" y1="1" y2="0"><stop offset="0" stop-color="#4d89ec"></stop><stop offset="0.986673" stop-color="#b3d0ff"></stop></linearGradient><linearGradient gradientUnits="objectBoundingBox" id="linearGradient-12" node-id="36" spreadMethod="pad" x1="0" x2="0" y1="1" y2="0"><stop offset="0" stop-color="#4484ef"></stop><stop offset="1" stop-color="#82b1ff"></stop></linearGradient><linearGradient gradientUnits="objectBoundingBox" id="linearGradient-13" node-id="39" spreadMethod="pad" x1="0.91738" x2="0.070548445" y1="0.61340225" y2="-0.093007565"><stop offset="0" stop-color="#5e9bff"></stop><stop offset="1" stop-color="#e2edff"></stop></linearGradient><linearGradient gradientUnits="objectBoundingBox" id="linearGradient-14" node-id="42" spreadMethod="pad" x1="0" x2="0" y1="1" y2="0"><stop offset="0" stop-color="#b3c3ff" stop-opacity="0.50196"></stop><stop offset="1" stop-color="#edf1ff"></stop></linearGradient><radialGradient cx="0.50000006" cy="0.024678007" fx="0.50000006" fy="0.024678007" gradientUnits="objectBoundingBox" id="radialGradient-1" node-id="5" r="0.70727026" rev="3" spreadMethod="pad"><stop offset="0" stop-color="#0052d9" stop-opacity="0.15156181"></stop><stop offset="1" stop-color="#0052d9" stop-opacity="0"></stop></radialGradient><radialGradient cx="0.24042307" cy="0.5" fx="0.24042307" fy="0.5" gradientUnits="objectBoundingBox" id="radialGradient1" node-id="165" r="0.66169447" rev="2" spreadMethod="pad"><stop offset="0" stop-color="#f2f7ff"></stop><stop offset="1" stop-color="#99c0ff"></stop></radialGradient><radialGradient cx="0.24042307" cy="0.5" fx="0.24042307" fy="0.5" gradientUnits="objectBoundingBox" id="radialGradient-15" node-id="45" r="0.66169447" rev="1" spreadMethod="pad"><stop offset="0" stop-color="#f2f7ff"></stop><stop offset="1" stop-color="#99c0ff"></stop></radialGradient></defs><g node-id="227"><g node-id="228"><path d="M 945.26 736.99 L 945.03 746.23 L 944.34 755.41 L 943.21 764.53 L 941.63 773.61 L 939.60 782.66 L 937.11 791.67 L 933.59 802.25 L 929.46 812.74 L 924.71 823.14 L 919.31 833.48 L 913.24 843.76 L 906.77 853.59 L 899.69 863.30 L 891.98 872.90 L 883.62 882.39 L 874.59 891.78 L 865.34 900.62 L 855.48 909.28 L 845.00 917.78 L 833.87 926.11 L 822.06 934.27 L 810.13 941.88 L 797.77 949.16 L 784.97 956.13 L 771.72 962.79 L 758.00 969.11 L 744.22 974.95 L 730.10 980.44 L 715.63 985.57 L 700.80 990.34 L 685.60 994.75 L 670.40 998.70 L 654.96 1002.26 L 639.26 1005.43 L 623.30 1008.20 L 607.07 1010.58 L 590.89 1012.51 L 574.55 1014.02 L 558.07 1015.11 L 541.43 1015.76 L 524.63 1015.99 L 507.83 1015.76 L 491.19 1015.11 L 474.71 1014.02 L 458.37 1012.51 L 442.19 1010.58 L 425.96 1008.20 L 410.00 1005.43 L 394.30 1002.26 L 378.86 998.70 L 363.66 994.75 L 348.46 990.34 L 333.63 985.57 L 319.16 980.44 L 305.04 974.95 L 291.26 969.11 L 277.54 962.79 L 264.29 956.13 L 251.49 949.16 L 239.13 941.88 L 227.20 934.27 L 215.39 926.11 L 204.26 917.78 L 193.78 909.28 L 183.92 900.62 L 174.67 891.78 L 165.64 882.39 L 157.28 872.90 L 149.57 863.30 L 142.49 853.59 L 136.02 843.76 L 129.95 833.48 L 124.55 823.14 L 119.80 812.74 L 115.67 802.25 L 112.15 791.67 L 109.66 782.66 L 107.63 773.61 L 106.05 764.53 L 104.92 755.41 L 104.23 746.23 L 104.00 736.99 L 104.23 727.75 L 104.92 718.57 L 106.05 709.45 L 107.63 700.37 L 109.66 691.32 L 112.15 682.31 L 115.67 671.73 L 119.80 661.24 L 124.55 650.84 L 129.95 640.50 L 136.02 630.22 L 142.49 620.39 L 149.57 610.68 L 157.28 601.08 L 165.64 591.59 L 174.67 582.20 L 183.92 573.36 L 193.78 564.70 L 204.26 556.20 L 215.39 547.87 L 227.20 539.71 L 239.13 532.10 L 251.49 524.82 L 264.29 517.85 L 277.54 511.19 L 291.26 504.87 L 305.04 499.03 L 319.16 493.54 L 333.63 488.41 L 348.46 483.64 L 363.66 479.23 L 378.86 475.28 L 394.30 471.72 L 410.00 468.55 L 425.96 465.78 L 442.19 463.40 L 458.37 461.47 L 474.71 459.96 L 491.19 458.87 L 507.83 458.22 L 524.63 457.99 L 541.43 458.22 L 558.07 458.87 L 574.55 459.96 L 590.89 461.47 L 607.07 463.40 L 623.30 465.78 L 639.26 468.55 L 654.96 471.72 L 670.40 475.28 L 685.60 479.23 L 700.80 483.64 L 715.63 488.41 L 730.10 493.54 L 744.22 499.03 L 758.00 504.87 L 771.72 511.19 L 784.97 517.85 L 797.77 524.82 L 810.13 532.10 L 822.06 539.71 L 833.87 547.87 L 845.00 556.20 L 855.48 564.70 L 865.34 573.36 L 874.59 582.20 L 883.62 591.59 L 891.98 601.08 L 899.69 610.68 L 906.77 620.39 L 913.24 630.22 L 919.31 640.50 L 924.71 650.84 L 929.46 661.24 L 933.59 671.73 L 937.11 682.31 L 939.60 691.32 L 941.63 700.37 L 943.21 709.45 L 944.34 718.57 L 945.03 727.75 Z" fill="url(#radialGradient-1)" fill-rule="nonzero" group-id="1,2" id="椭圆形" node-id="51" stroke="none" target-height="558" target-width="841.26" target-x="104" target-y="457.99"></path><g node-id="230"><path d="M 242.40 554.99 L 252.78 554.99 L 252.78 609.66 L 252.58 611.11 L 252.08 612.35 L 251.26 613.43 L 250.21 614.27 L 249.00 614.79 L 247.59 614.99 L 247.59 614.99 L 246.18 614.79 L 244.98 614.27 L 243.92 613.43 L 243.11 612.35 L 242.60 611.11 L 242.40 609.66 Z" fill="#3f78d6" fill-rule="nonzero" group-id="1,2,4" node-id="185" stroke="none" target-height="60" target-width="10.380005" target-x="242.4" target-y="554.99"></path><path d="M 242.40 524.99 L 266.63 588.32 L 242.40 604.99 Z" fill="url(#linearGradient-2)" fill-rule="evenodd" group-id="1,2,4" node-id="187" stroke="none" target-height="80" target-width="24.230011" target-x="242.4" target-y="524.99"></path><path d="M 242.40 524.99 L 221.63 594.99 L 242.40 604.99 Z" fill="url(#linearGradient-3)" fill-rule="evenodd" group-id="1,2,4" node-id="189" stroke="none" target-height="80" target-width="20.770004" target-x="221.62999" target-y="524.99"></path></g><g node-id="231"><path d="M 819.63 512.99 L 827.63 512.99 L 827.63 555.81 L 827.31 557.45 L 826.46 558.77 L 825.19 559.66 L 823.63 559.99 L 823.63 559.99 L 822.07 559.66 L 820.80 558.77 L 819.95 557.45 L 819.63 555.81 Z" fill="#3f78d6" fill-rule="nonzero" group-id="1,2,5" node-id="193" stroke="none" target-height="47" target-width="8" target-x="819.63" target-y="512.99"></path><path d="M 819.63 489.99 L 838.63 539.07 L 819.63 551.99 Z" fill="url(#linearGradient-4)" fill-rule="evenodd" group-id="1,2,5" node-id="195" stroke="none" target-height="62" target-width="19" target-x="819.63" target-y="489.99"></path><path d="M 819.63 489.99 L 803.63 544.24 L 819.63 551.99 Z" fill="url(#linearGradient-5)" fill-rule="evenodd" group-id="1,2,5" node-id="197" stroke="none" target-height="62" target-width="16" target-x="803.63" target-y="489.99"></path></g><g node-id="232"><path d="M 293.63 480.99 L 301.63 480.99 L 301.63 521.99 L 301.31 523.56 L 300.46 524.82 L 299.20 525.67 L 297.63 525.99 L 297.63 525.99 L 296.06 525.67 L 294.80 524.82 L 293.95 523.56 L 293.63 521.99 Z" fill="#3f78d6" fill-rule="nonzero" group-id="1,2,6" node-id="201" stroke="none" target-height="45" target-width="8" target-x="293.63" target-y="480.99"></path><path d="M 293.63 457.99 L 311.63 505.49 L 293.63 517.99 Z" fill="url(#linearGradient-6)" fill-rule="evenodd" group-id="1,2,6" node-id="203" stroke="none" target-height="60" target-width="18" target-x="293.63" target-y="457.99"></path><path d="M 293.63 457.99 L 277.63 510.49 L 293.63 517.99 Z" fill="url(#linearGradient-7)" fill-rule="evenodd" group-id="1,2,6" node-id="205" stroke="none" target-height="60" target-width="16" target-x="277.63" target-y="457.99"></path></g></g><g node-id="229"><path d="M 419.83 277.00 L 592.17 277.00 C 602.02 277.00 610.00 285.03 610.00 294.93 L 610.00 516.07 C 610.00 525.97 602.02 534.00 592.17 534.00 L 419.83 534.00 C 409.98 534.00 402.00 525.97 402.00 516.07 L 402.00 294.93 C 402.00 285.03 409.98 277.00 419.83 277.00 Z" fill="#a2d2fe" fill-rule="evenodd" group-id="1,3" id="路径" node-id="65" stroke="none" target-height="257" target-width="208" target-x="402" target-y="277"></path><path d="M 419.83 277.00 L 592.17 277.00 C 602.02 277.00 610.00 285.03 610.00 294.93 L 610.00 516.07 C 610.00 525.97 602.02 534.00 592.17 534.00 L 419.83 534.00 C 409.98 534.00 402.00 525.97 402.00 516.07 L 402.00 294.93 C 402.00 285.03 409.98 277.00 419.83 277.00 Z" fill="url(#linearGradient-8)" fill-rule="evenodd" group-id="1,3" id="路径" node-id="66" stroke="none" target-height="257" target-width="208" target-x="402" target-y="277"></path><path d="M 566.05 339.91 L 476.73 339.91 C 473.44 339.91 470.77 337.24 470.77 333.95 C 470.77 330.66 473.44 328.00 476.73 328.00 L 566.05 328.00 C 569.34 328.00 572.00 330.66 572.00 333.95 C 572.00 337.24 569.34 339.91 566.05 339.91 Z M 476.73 405.40 L 500.55 405.40 C 503.83 405.40 506.50 408.06 506.50 411.35 C 506.50 414.64 503.83 417.30 500.55 417.30 L 476.73 417.30 C 473.44 417.30 470.77 414.64 470.77 411.35 C 470.77 408.06 473.44 405.40 476.73 405.40 Z M 455.89 456.00 L 446.95 456.00 C 443.66 456.00 441.00 453.34 441.00 450.05 C 441.00 446.76 443.66 444.09 446.95 444.09 L 455.89 444.09 C 459.17 444.09 461.84 446.76 461.84 450.05 C 461.84 453.34 459.17 456.00 455.89 456.00 Z M 455.89 417.30 L 446.95 417.30 C 443.66 417.30 441.00 414.64 441.00 411.35 C 441.00 408.06 443.66 405.40 446.95 405.40 L 455.89 405.40 C 459.17 405.40 461.84 408.06 461.84 411.35 C 461.84 414.64 459.17 417.30 455.89 417.30 Z M 455.89 378.60 L 446.95 378.60 C 443.66 378.60 441.00 375.94 441.00 372.65 C 441.00 369.36 443.66 366.70 446.95 366.70 L 455.89 366.70 C 459.17 366.70 461.84 369.36 461.84 372.65 C 461.84 375.94 459.17 378.60 455.89 378.60 Z M 455.89 339.91 L 446.95 339.91 C 443.66 339.91 441.00 337.24 441.00 333.95 C 441.00 330.66 443.66 328.00 446.95 328.00 L 455.89 328.00 C 459.17 328.00 461.84 330.66 461.84 333.95 C 461.84 337.24 459.17 339.91 455.89 339.91 Z M 476.73 444.09 L 500.55 444.09 C 503.84 444.09 506.50 446.76 506.50 450.05 C 506.50 453.34 503.84 456.00 500.55 456.00 L 476.73 456.00 C 473.44 456.00 470.77 453.34 470.77 450.05 C 470.77 446.76 473.44 444.09 476.73 444.09 Z M 470.77 372.65 C 470.77 369.36 473.44 366.70 476.73 366.70 L 563.07 366.70 C 566.36 366.70 569.02 369.36 569.02 372.65 C 569.02 375.94 566.36 378.60 563.07 378.60 L 476.73 378.60 C 473.44 378.60 470.77 375.94 470.77 372.65 Z" fill="#f9faff" fill-rule="evenodd" group-id="1,3" id="形状" node-id="67" stroke="none" target-height="128" target-width="131" target-x="441" target-y="328"></path><path d="M 566.05 339.91 L 476.73 339.91 C 473.44 339.91 470.77 337.24 470.77 333.95 C 470.77 330.66 473.44 328.00 476.73 328.00 L 566.05 328.00 C 569.34 328.00 572.00 330.66 572.00 333.95 C 572.00 337.24 569.34 339.91 566.05 339.91 Z M 476.73 405.40 L 500.55 405.40 C 503.83 405.40 506.50 408.06 506.50 411.35 C 506.50 414.64 503.83 417.30 500.55 417.30 L 476.73 417.30 C 473.44 417.30 470.77 414.64 470.77 411.35 C 470.77 408.06 473.44 405.40 476.73 405.40 Z M 455.89 456.00 L 446.95 456.00 C 443.66 456.00 441.00 453.34 441.00 450.05 C 441.00 446.76 443.66 444.09 446.95 444.09 L 455.89 444.09 C 459.17 444.09 461.84 446.76 461.84 450.05 C 461.84 453.34 459.17 456.00 455.89 456.00 Z M 455.89 417.30 L 446.95 417.30 C 443.66 417.30 441.00 414.64 441.00 411.35 C 441.00 408.06 443.66 405.40 446.95 405.40 L 455.89 405.40 C 459.17 405.40 461.84 408.06 461.84 411.35 C 461.84 414.64 459.17 417.30 455.89 417.30 Z M 455.89 378.60 L 446.95 378.60 C 443.66 378.60 441.00 375.94 441.00 372.65 C 441.00 369.36 443.66 366.70 446.95 366.70 L 455.89 366.70 C 459.17 366.70 461.84 369.36 461.84 372.65 C 461.84 375.94 459.17 378.60 455.89 378.60 Z M 455.89 339.91 L 446.95 339.91 C 443.66 339.91 441.00 337.24 441.00 333.95 C 441.00 330.66 443.66 328.00 446.95 328.00 L 455.89 328.00 C 459.17 328.00 461.84 330.66 461.84 333.95 C 461.84 337.24 459.17 339.91 455.89 339.91 Z M 476.73 444.09 L 500.55 444.09 C 503.84 444.09 506.50 446.76 506.50 450.05 C 506.50 453.34 503.84 456.00 500.55 456.00 L 476.73 456.00 C 473.44 456.00 470.77 453.34 470.77 450.05 C 470.77 446.76 473.44 444.09 476.73 444.09 Z M 470.77 372.65 C 470.77 369.36 473.44 366.70 476.73 366.70 L 563.07 366.70 C 566.36 366.70 569.02 369.36 569.02 372.65 C 569.02 375.94 566.36 378.60 563.07 378.60 L 476.73 378.60 C 473.44 378.60 470.77 375.94 470.77 372.65 Z" fill="#ffffff" fill-rule="nonzero" group-id="1,3" id="形状" node-id="68" stroke="none" target-height="128" target-width="131" target-x="441" target-y="328"></path><path d="M 623.00 468.68 L 635.39 456.00 L 666.00 487.32 L 653.61 500.00 Z" fill="#6a9bed" fill-rule="evenodd" group-id="1,3" id="路径" node-id="69" stroke="none" target-height="44" target-width="43" target-x="623" target-y="456"></path><path d="M 641.45 485.54 L 652.54 474.45 C 655.80 471.18 661.10 471.18 664.37 474.45 L 703.55 509.20 C 706.82 512.46 706.82 517.76 703.55 521.03 L 688.02 536.55 C 684.76 539.82 679.46 539.82 676.20 536.55 L 641.45 497.37 C 638.18 494.10 638.18 488.81 641.45 485.54 Z" fill="#999999" fill-rule="evenodd" group-id="1,3" id="路径" node-id="70" stroke="none" target-height="68.63318" target-width="68.63281" target-x="638.1836" target-y="471.1834"></path><g node-id="233"><g node-id="235"><path d="M 641.45 485.54 L 652.54 474.45 C 655.80 471.18 661.10 471.18 664.37 474.45 L 703.55 509.20 C 706.82 512.46 706.82 517.76 703.55 521.03 L 688.02 536.55 C 684.76 539.82 679.46 539.82 676.20 536.55 L 641.45 497.37 C 638.18 494.10 638.18 488.81 641.45 485.54 Z" fill="url(#linearGradient-9)" fill-rule="nonzero" group-id="1,3,7,9" node-id="220" stroke="none" target-height="68.63318" target-width="68.63281" target-x="638.1836" target-y="471.1834"></path></g><path d="M 641.45 485.54 L 652.54 474.45 C 655.80 471.18 661.10 471.18 664.37 474.45 L 703.55 509.20 C 706.82 512.46 706.82 517.76 703.55 521.03 L 688.02 536.55 C 684.76 539.82 679.46 539.82 676.20 536.55 L 641.45 497.37 C 638.18 494.10 638.18 488.81 641.45 485.54 Z" fill="url(#linearGradient-10)" fill-rule="nonzero" group-id="1,3,7,10" node-id="225" stroke="none" target-height="68.63318" target-width="68.63281" target-x="638.1836" target-y="471.1834"></path></g><path d="M 592.50 488.00 C 553.01 488.00 521.00 455.99 521.00 416.50 C 521.00 377.01 553.01 345.00 592.50 345.00 C 631.99 345.00 664.00 377.01 664.00 416.50 C 664.00 455.99 631.99 488.00 592.50 488.00 Z M 592.50 359.90 C 564.53 359.90 541.85 382.57 541.85 410.54 C 541.85 438.51 564.53 461.19 592.50 461.19 C 620.47 461.19 643.15 438.51 643.15 410.54 C 643.15 382.57 620.47 359.90 592.50 359.90 Z" fill="#e5e5e5" fill-rule="evenodd" group-id="1,3" id="形状" node-id="74" stroke="none" target-height="143" target-width="143" target-x="521" target-y="345"></path><path d="M 592.50 488.00 C 553.01 488.00 521.00 455.99 521.00 416.50 C 521.00 377.01 553.01 345.00 592.50 345.00 C 631.99 345.00 664.00 377.01 664.00 416.50 C 664.00 455.99 631.99 488.00 592.50 488.00 Z M 592.50 359.90 C 564.53 359.90 541.85 382.57 541.85 410.54 C 541.85 438.51 564.53 461.19 592.50 461.19 C 620.47 461.19 643.15 438.51 643.15 410.54 C 643.15 382.57 620.47 359.90 592.50 359.90 Z" fill="url(#linearGradient-12)" fill-rule="nonzero" group-id="1,3" id="形状" node-id="75" stroke="none" target-height="143" target-width="143" target-x="521" target-y="345"></path><path d="M 592.50 483.00 C 553.01 483.00 521.00 450.99 521.00 411.50 C 521.00 372.01 553.01 340.00 592.50 340.00 C 631.99 340.00 664.00 372.01 664.00 411.50 C 664.00 450.99 631.99 483.00 592.50 483.00 Z M 592.50 360.85 C 564.53 360.85 541.85 383.53 541.85 411.50 C 541.85 439.47 564.53 462.15 592.50 462.15 C 620.47 462.15 643.15 439.47 643.15 411.50 C 643.15 383.53 620.47 360.85 592.50 360.85 Z" fill="#e5e5e5" fill-rule="evenodd" group-id="1,3" id="形状" node-id="76" stroke="none" target-height="143" target-width="143" target-x="521" target-y="340"></path><path d="M 592.50 483.00 C 553.01 483.00 521.00 450.99 521.00 411.50 C 521.00 372.01 553.01 340.00 592.50 340.00 C 631.99 340.00 664.00 372.01 664.00 411.50 C 664.00 450.99 631.99 483.00 592.50 483.00 Z M 592.50 360.85 C 564.53 360.85 541.85 383.53 541.85 411.50 C 541.85 439.47 564.53 462.15 592.50 462.15 C 620.47 462.15 643.15 439.47 643.15 411.50 C 643.15 383.53 620.47 360.85 592.50 360.85 Z" fill="url(#linearGradient-13)" fill-rule="evenodd" group-id="1,3" id="形状" node-id="77" stroke="none" target-height="143" target-width="143" target-x="521" target-y="340"></path><g node-id="234"><path d="M 595.79 342.99 C 556.14 342.99 523.99 375.14 523.99 414.79 C 523.99 433.86 531.47 451.14 543.60 464.00 C 529.72 450.91 521.00 432.39 521.00 411.80 C 521.00 372.15 553.15 340.00 592.80 340.00 C 613.39 340.00 631.90 348.72 645.00 362.60 C 632.14 350.47 614.86 342.99 595.79 342.99 Z" fill="#e6ecff" fill-opacity="0.8" fill-rule="evenodd" group-id="1,3,8" id="路径" node-id="78" stroke="none" target-height="124" target-width="124" target-x="521" target-y="340"></path></g><path d="M 589.81 480.03 C 629.14 480.03 661.03 448.14 661.03 408.81 C 661.03 389.89 653.61 372.75 641.58 360.00 C 655.36 372.99 664.00 391.35 664.00 411.77 C 664.00 451.11 632.11 483.00 592.77 483.00 C 572.35 483.00 553.99 474.36 541.00 460.58 C 553.75 472.61 570.89 480.03 589.81 480.03 Z" fill="#f6f8ff" fill-rule="evenodd" group-id="1,3" id="路径" node-id="79" stroke="none" target-height="123" target-width="123" target-x="541" target-y="360"></path><path d="M 592.50 361.00 C 620.39 361.00 643.00 383.61 643.00 411.50 C 643.00 439.39 620.39 462.00 592.50 462.00 C 564.61 462.00 542.00 439.39 542.00 411.50 C 542.00 383.61 564.61 361.00 592.50 361.00 Z" fill="#e5e5e5" fill-opacity="0" fill-rule="evenodd" group-id="1,3" id="路径" node-id="80" stroke="none" target-height="101" target-width="101" target-x="542" target-y="361"></path><path d="M 592.50 361.00 C 620.39 361.00 643.00 383.61 643.00 411.50 C 643.00 439.39 620.39 462.00 592.50 462.00 C 564.61 462.00 542.00 439.39 542.00 411.50 C 542.00 383.61 564.61 361.00 592.50 361.00 Z" fill="url(#linearGradient-14)" fill-rule="nonzero" group-id="1,3" id="路径" node-id="81" stroke="none" target-height="101" target-width="101" target-x="542" target-y="361"></path></g><path d="M 720.63 299.49 L 720.29 304.37 L 719.36 308.96 L 717.84 313.31 L 715.77 317.43 L 713.24 321.18 L 710.23 324.59 L 706.82 327.60 L 703.07 330.13 L 698.95 332.20 L 694.60 333.72 L 690.01 334.65 L 685.13 334.99 L 680.25 334.65 L 675.66 333.72 L 671.31 332.20 L 667.19 330.13 L 663.44 327.60 L 660.03 324.59 L 657.02 321.18 L 654.49 317.43 L 652.42 313.31 L 650.90 308.96 L 649.97 304.37 L 649.63 299.49 L 649.97 294.61 L 650.90 290.02 L 652.42 285.67 L 654.49 281.55 L 657.02 277.80 L 660.03 274.39 L 663.44 271.38 L 667.19 268.85 L 671.31 266.78 L 675.66 265.26 L 680.25 264.33 L 685.13 263.99 L 690.01 264.33 L 694.60 265.26 L 698.95 266.78 L 703.07 268.85 L 706.82 271.38 L 710.23 274.39 L 713.24 277.80 L 715.77 281.55 L 717.84 285.67 L 719.36 290.02 L 720.29 294.61 Z" fill="url(#radialGradient1)" fill-rule="nonzero" group-id="1" id="椭圆形" node-id="82" stroke="none" target-height="71" target-width="71" target-x="649.63" target-y="263.99"></path><path d="M 378.63 438.49 L 378.30 442.05 L 377.41 445.31 L 375.97 448.33 L 374.03 451.07 L 371.71 453.39 L 368.97 455.33 L 365.95 456.77 L 362.69 457.66 L 359.13 457.99 L 355.57 457.66 L 352.31 456.77 L 349.29 455.33 L 346.55 453.39 L 344.23 451.07 L 342.29 448.33 L 340.85 445.31 L 339.96 442.05 L 339.63 438.49 L 339.96 434.93 L 340.85 431.67 L 342.29 428.65 L 344.23 425.91 L 346.55 423.59 L 349.29 421.65 L 352.31 420.21 L 355.57 419.32 L 359.13 418.99 L 362.69 419.32 L 365.95 420.21 L 368.97 421.65 L 371.71 423.59 L 374.03 425.91 L 375.97 428.65 L 377.41 431.67 L 378.30 434.93 Z" fill="url(#radialGradient-15)" fill-opacity="0.56253344" fill-rule="nonzero" group-id="1" id="椭圆形备份" node-id="83" stroke="none" target-height="39" target-width="39" target-x="339.63" target-y="418.99"></path></g></svg>