<svg xmlns="http://www.w3.org/2000/svg" xmlns:xlink="http://www.w3.org/1999/xlink" fill="none" version="1.1" width="15.5" height="13.5" viewBox="0 0 15.5 13.5"><path d="M3.2803302,1.2803301C3.5732231,0.98743689,3.5732231,0.51256311,3.2803302,0.21966992C2.9874368,-0.073223308,2.5125632,-0.073223308,2.2196698,0.21966992C2.2196698,0.21966992,0.21966992,2.2196698,0.21966992,2.2196698C-0.073223308,2.5125632,-0.073223308,2.9874368,0.21966992,3.2803302C0.21966992,3.2803302,2.2196698,5.2803302,2.2196698,5.2803302C2.5125632,5.5732236,2.9874368,5.5732236,3.2803302,5.2803302C3.5732231,4.9874372,3.5732231,4.5125632,3.2803302,4.2196698C3.2803302,4.2196698,2.5606601,3.5,2.5606601,3.5C2.5606601,3.5,12.75,3.5,12.75,3.5C13.164213,3.5,13.5,3.1642137,13.5,2.75C13.5,2.3357863,13.164213,2,12.75,2C12.75,2,2.5606601,2,2.5606601,2C2.5606601,2,3.2803302,1.2803301,3.2803302,1.2803301ZM12.219669,8.2196703C11.926777,8.5125628,11.926777,8.9874372,12.219669,9.2803297C12.219669,9.2803297,12.93934,10,12.93934,10C12.93934,10,2.75,10,2.75,10C2.3357868,10,2,10.335787,2,10.75C2,11.164213,2.3357868,11.5,2.75,11.5C2.75,11.5,12.93934,11.5,12.93934,11.5C12.93934,11.5,12.219669,12.21967,12.219669,12.21967C11.926777,12.512564,11.926777,12.987437,12.219669,13.280331C12.512563,13.573223,12.987436,13.573223,13.28033,13.280331C13.28033,13.280331,15.28033,11.280331,15.28033,11.280331C15.573223,10.987437,15.573223,10.512564,15.28033,10.21967C15.28033,10.21967,13.28033,8.2196703,13.28033,8.2196703C12.987436,7.9267769,12.512563,7.9267769,12.219669,8.2196703Z" fill="#000000" fill-opacity="1"/></svg>