<svg xmlns="http://www.w3.org/2000/svg" xmlns:xlink="http://www.w3.org/1999/xlink" fill="none" version="1.1" width="16.5" height="18.5" viewBox="0 0 16.5 18.5"><path d="M0,4.75C0,2.1266475,2.1266479,0,4.75,0L14.75,0C15.716498,0,16.5,0.7835018,16.5,1.75L16.5,16.75C16.5,17.716499,15.716498,18.5,14.75,18.5L3.7499998,18.5C1.678932,18.5,0,16.821068,0,14.75L0,4.75ZM15,1.75L15,11L3.7499998,11C2.9057953,11,2.1267452,11.278958,1.5,11.749725L1.5,4.75C1.5,2.9550748,2.9550748,1.5,4.75,1.5L14.75,1.5C14.888071,1.5,15,1.6119287,15,1.75ZM5.25,4C4.8357863,4,4.5,4.3357863,4.5,4.75C4.5,5.1642137,4.8357863,5.5,5.25,5.5L12.25,5.5C12.664213,5.5,13,5.1642137,13,4.75C13,4.3357863,12.664213,4,12.25,4L5.25,4ZM4.5,7.75C4.5,7.3357863,4.8357863,7,5.25,7L10.25,7C10.664213,7,11,7.3357863,11,7.75C11,8.1642132,10.664213,8.5,10.25,8.5L5.25,8.5C4.8357863,8.5,4.5,8.1642132,4.5,7.75ZM3.7499998,12.5L15,12.5L15,16.75C15,16.888071,14.888071,17,14.75,17L3.7499998,17C2.5073593,17,1.5,15.99264,1.5,14.75C1.5,13.50736,2.5073593,12.5,3.7499998,12.5Z" fill-rule="evenodd" fill="#000000" fill-opacity="1"/></svg>