<svg xmlns="http://www.w3.org/2000/svg" xmlns:xlink="http://www.w3.org/1999/xlink" fill="none" version="1.1" width="18.260513305664062" height="18.272550582885742" viewBox="0 0 18.260513305664062 18.272550582885742"><path d="M6.0594287,1.606558C4.7882104,1.4644806,3.4723039,1.4644806,2.2010856,1.606558C1.8921957,1.641081,1.648598,1.8856704,1.6138544,2.1827285C1.4620485,3.480669,1.4620485,4.7918811,1.6138544,6.0898213C1.648598,6.3868794,1.8921957,6.6314692,2.201086,6.6659923C3.4723043,6.8080692,4.7882099,6.8080692,6.0594282,6.6659923C6.3683186,6.6314692,6.6119161,6.3868794,6.6466599,6.0898218C6.7984657,4.7918811,6.7984657,3.480669,6.6466599,2.1827285C6.6119161,1.8856705,6.3683186,1.6410811,6.0594287,1.606558ZM2.034476,0.11583965C3.4164226,-0.038613215,4.8440919,-0.038613215,6.2260385,0.11583965C7.2168779,0.22658055,8.0193214,1.0065676,8.1365042,2.0084774C8.3018513,3.4221907,8.3018513,4.8503594,8.1365042,6.2640724C8.0193214,7.2659826,7.2168779,8.045969,6.226038,8.1567106C4.8440914,8.3111629,3.4164231,8.3111629,2.0344765,8.1567106C1.0436368,8.045969,0.24119239,7.2659826,0.12400992,6.2640724C-0.041336641,4.850359,-0.041336641,3.4221911,0.12400992,2.0084777C0.24119236,1.006568,1.0436361,0.22658058,2.034476,0.11583965ZM6.0594287,11.606558C4.7882104,11.46448,3.4723039,11.46448,2.2010856,11.606558C1.8921957,11.641081,1.648598,11.885671,1.6138544,12.182729C1.4620485,13.480669,1.4620485,14.791881,1.6138544,16.089821C1.648598,16.386879,1.8921957,16.63147,2.201086,16.665993C3.4723043,16.808069,4.7882099,16.808069,6.0594282,16.665993C6.3683186,16.63147,6.6119161,16.386879,6.6466599,16.089821C6.7984657,14.79188,6.7984657,13.480669,6.6466599,12.182729C6.6119161,11.885671,6.3683186,11.641081,6.0594287,11.606558ZM2.034476,10.11584C3.4164226,9.9613867,4.8440919,9.9613867,6.2260385,10.11584C7.2168779,10.226581,8.0193214,11.006567,8.1365042,12.008477C8.3018513,13.422191,8.3018513,14.850359,8.1365042,16.264072C8.0193214,17.265984,7.2168779,18.045971,6.226038,18.156712C4.8440914,18.311165,3.4164231,18.311165,2.0344765,18.156712C1.0436368,18.045971,0.24119239,17.265984,0.12400992,16.264072C-0.041336641,14.850359,-0.041336641,13.422192,0.12400992,12.008478C0.24119236,11.006569,1.0436361,10.226581,2.034476,10.11584ZM16.059429,1.606558C14.788211,1.4644806,13.472304,1.4644806,12.201086,1.606558C11.892197,1.641081,11.648598,1.8856704,11.613854,2.1827285C11.462049,3.480669,11.462049,4.7918811,11.613854,6.0898213C11.648598,6.3868794,11.892196,6.6314692,12.201086,6.6659923C13.472304,6.8080692,14.788211,6.8080692,16.059429,6.6659923C16.36832,6.6314692,16.611916,6.3868794,16.64666,6.0898218C16.798466,4.7918811,16.798466,3.480669,16.64666,2.1827285C16.611916,1.8856705,16.368319,1.6410811,16.059429,1.606558ZM12.034476,0.11583965C13.416423,-0.038613215,14.844091,-0.038613215,16.226038,0.11583965C17.216877,0.22658055,18.019323,1.0065676,18.136505,2.0084774C18.301851,3.4221907,18.301851,4.8503594,18.136505,6.2640724C18.019323,7.2659826,17.216877,8.045969,16.226038,8.1567106C14.844091,8.3111629,13.416423,8.3111629,12.034476,8.1567106C11.043636,8.045969,10.241193,7.2659826,10.12401,6.2640724C9.9586639,4.850359,9.9586639,3.4221911,10.12401,2.0084777C10.241193,1.006568,11.043636,0.22658058,12.034476,0.11583965ZM16.059429,11.606558C14.788211,11.46448,13.472304,11.46448,12.201086,11.606558C11.892197,11.641081,11.648598,11.885671,11.613854,12.182729C11.462049,13.480669,11.462049,14.791881,11.613854,16.089821C11.648598,16.386879,11.892196,16.63147,12.201086,16.665993C13.472304,16.808069,14.788211,16.808069,16.059429,16.665993C16.36832,16.63147,16.611916,16.386879,16.64666,16.089821C16.798466,14.79188,16.798466,13.480669,16.64666,12.182729C16.611916,11.885671,16.368319,11.641081,16.059429,11.606558ZM12.034476,10.11584C13.416423,9.9613867,14.844091,9.9613867,16.226038,10.11584C17.216877,10.226581,18.019323,11.006567,18.136505,12.008477C18.301851,13.422191,18.301851,14.850359,18.136505,16.264072C18.019323,17.265984,17.216877,18.045971,16.226038,18.156712C14.844091,18.311165,13.416423,18.311165,12.034476,18.156712C11.043636,18.045971,10.241193,17.265984,10.12401,16.264072C9.9586639,14.850359,9.9586639,13.422192,10.12401,12.008478C10.241193,11.006569,11.043636,10.226581,12.034476,10.11584Z" fill-rule="evenodd" fill="#000000" fill-opacity="1"/></svg>