<svg xmlns="http://www.w3.org/2000/svg" xmlns:xlink="http://www.w3.org/1999/xlink" fill="none" version="1.1" width="18.828754425048828" height="15.093497276306152" viewBox="0 0 18.828754425048828 15.093497276306152"><path d="M14.146851,0.20530535C10.997805,-0.068435237,7.830946,-0.068435058,4.6819,0.20530556L3.1716669,0.33658725C1.7265985,0.46220428,0.55592883,1.561849,0.34023094,2.9962399C-0.11341032,6.0129542,-0.11341032,9.0805435,0.34023094,12.097258C0.55592889,13.531649,1.7265997,14.631293,3.1716676,14.75691L4.6819005,14.888192C7.830945,15.161933,10.99781,15.161932,14.146855,14.888191L15.657086,14.75691C17.102154,14.631292,18.272825,13.531649,18.488523,12.097258C18.942163,9.0805435,18.942163,6.0129542,18.488523,2.9962401C18.272825,1.5618489,17.102152,0.46220416,15.657084,0.33658713L14.146851,0.20530535ZM4.8118019,1.6996702C7.8744097,1.4334435,10.954341,1.4334433,14.016949,1.69967L15.527183,1.8309517C16.281511,1.8965242,16.892605,2.4705415,17.005201,3.2192962C17.436605,6.0881376,17.436605,9.0053606,17.005199,11.874202C17.001106,11.901426,16.996353,11.92842,16.990957,11.955167L13.471833,8.0450296C13.272255,7.8232756,12.960222,7.7408977,12.677192,7.8352408L10.14636,8.6788511L6.4749203,4.5484805C6.3376904,4.3940964,6.1428633,4.3031445,5.9363937,4.2970772C5.7299242,4.2910094,5.5300922,4.3703642,5.3840332,4.5164232L1.5121702,8.3882866C1.4622227,6.6617718,1.5660173,4.9319129,1.8235537,3.219296C1.9361483,2.470541,2.54724,1.8965242,3.3015692,1.8309518L4.8118019,1.6996702ZM12.914368,3.0467529C12.08594,3.0467529,11.414368,3.7183259,11.414368,4.5467529C11.414368,5.3751802,12.08594,6.0467529,12.914368,6.0467529C13.742795,6.0467529,14.414368,5.3751802,14.414368,4.5467529C14.414368,3.7183259,13.742795,3.0467529,12.914368,3.0467529ZM12.68551,9.4136076L16.034531,13.13474C15.876608,13.202928,15.705916,13.247008,15.527184,13.262546L14.016953,13.393827C10.954347,13.660054,7.8744087,13.660054,4.8118029,13.393827L3.3015699,13.262546C2.5472407,13.196973,1.9361483,12.622955,1.8235537,11.874201C1.7490096,11.378483,1.6873463,10.881321,1.6385638,10.383213L5.8822508,6.1395264L9.3538055,10.045027C9.5531292,10.269264,9.866909,10.353141,10.151534,10.258266L12.68551,9.4136076Z" fill-rule="evenodd" fill="#000000" fill-opacity="1"/></svg>