<svg xmlns="http://www.w3.org/2000/svg" xmlns:xlink="http://www.w3.org/1999/xlink" fill="none" version="1.1" width="19" height="15" viewBox="0 0 19 15"><path d="M14.15,0.21C11,0,7.83,0,4.68,0.21L3.17,0.34C1.73,0.46,0.56,1.56,0.34,2.99C-0.11,6.01,-0.11,9.08,0.34,12.1C0.56,13.53,1.73,14.63,3.17,14.76L4.68,14.89C7.83,15.16,11,15.16,14.15,14.89L15.66,14.76C17.1,14.63,18.27,13.53,18.49,12.1C18.94,9.08,18.94,6.01,18.49,2.99C18.27,1.56,17.1,0.46,15.66,0.34L14.15,0.21ZM4.81,1.7C7.87,1.43,10.95,1.43,14.02,1.7L15.53,1.83C16.28,1.9,16.89,2.47,17,3.22C17.44,6.09,17.44,9,17,11.87C17,11.9,16.99,11.93,16.99,11.96L13.47,8.05C13.27,7.82,12.96,7.74,12.68,7.84L10.15,8.68L6.47,4.55C6.34,4.39,6.14,4.3,5.94,4.29C5.73,4.29,5.53,4.37,5.38,4.52L1.51,8.39C1.46,6.66,1.57,4.93,1.82,3.22C1.94,2.47,2.55,1.9,3.3,1.83L4.81,1.7ZM12.91,3.05C12.09,3.05,11.41,3.72,11.41,4.55C11.41,5.38,12.09,6.05,12.91,6.05C13.74,6.05,14.41,5.38,14.41,4.55C14.41,3.72,13.74,3.05,12.91,3.05Z" fill="#000000" fill-opacity="1"/></svg>
