<svg xmlns="http://www.w3.org/2000/svg" xmlns:xlink="http://www.w3.org/1999/xlink" fill="none" version="1.1" width="15.5" height="20.5" viewBox="0 0 15.5 20.5"><path d="M7.75,1.5C4.2739735,1.5,1.5,4.2172656,1.5,7.5159397C1.5,9.5205307,2.3209269,11.249343,3.7853405,12.326021C4.1080976,12.563321,4.3842134,12.917215,4.4899635,13.366212C4.5767508,13.734694,4.6760807,14.183692,4.7744689,14.659535C4.7744689,14.659535,7,14.659535,7,14.659535C7,14.659535,7,13.577093,7,13.577093C7,13.4344,7.0407066,13.294666,7.1173425,13.174297C7.1173425,13.174297,7.9191594,11.914912,7.9191594,11.914912C7.9191594,11.914912,6.1201062,10.502058,6.1201062,10.502058C5.8168712,10.263918,5.7436023,9.8346567,5.950676,9.5094137C5.950676,9.5094137,7.1173425,7.6769719,7.1173425,7.6769719C7.3398004,7.3275647,7.8033886,7.2246523,8.1527958,7.4471102C8.502203,7.6695685,8.6051159,8.1331568,8.3826571,8.482564C8.3826571,8.482564,7.5808401,9.7419491,7.5808401,9.7419491C7.5808401,9.7419491,9.3798933,11.154803,9.3798933,11.154803C9.6831284,11.392944,9.7563972,11.822205,9.549324,12.147448C9.549324,12.147448,8.5,13.795584,8.5,13.795584C8.5,13.795584,8.5,14.659535,8.5,14.659535C8.5,14.659535,10.725531,14.659535,10.725531,14.659535C10.823918,14.183692,10.923249,13.734694,11.010036,13.366212C11.115787,12.917215,11.391901,12.563321,11.714659,12.326021C13.179072,11.249344,14,9.5205307,14,7.5159397C14,4.2172656,11.226026,1.5,7.75,1.5ZM10.43872,16.159534C10.43872,16.159534,5.0612803,16.159534,5.0612803,16.159534C5.1716905,16.797112,5.2583089,17.400944,5.2845354,17.834421C5.3121486,18.290821,5.6532602,18.699846,6.1562119,18.80851C6.1562119,18.80851,6.3521872,18.850853,6.3521872,18.850853C7.2726207,19.049717,8.2273788,19.049717,9.1478138,18.850851C9.1478138,18.850851,9.3437881,18.80851,9.3437881,18.80851C9.8467398,18.699844,10.187851,18.290821,10.215465,17.834421C10.241691,17.400944,10.328309,16.797112,10.43872,16.159534ZM0,7.5159397C0,3.3411627,3.4940395,0,7.75,0C12.00596,0,15.5,3.3411627,15.5,7.5159397C15.5,9.9397926,14.49643,12.142575,12.603192,13.534536C12.516847,13.59802,12.480745,13.664836,12.470086,13.710092C12.351701,14.212734,12.2075,14.87798,12.076005,15.55295C11.893224,16.491184,11.744416,17.401239,11.712727,17.925009C11.642653,19.083181,10.790592,20.030531,9.6605616,20.274681C9.6605616,20.274681,9.4645863,20.317022,9.4645863,20.317022C8.3353786,20.560993,7.1646209,20.560993,6.0354128,20.317022C6.0354128,20.317022,5.8394394,20.274681,5.8394394,20.274681C4.7094088,20.030533,3.8573456,19.083181,3.7872732,17.925009C3.7555838,17.401239,3.6067755,16.491184,3.4239941,15.55295C3.2925,14.87798,3.1482985,14.212734,3.0299129,13.710092C3.0192544,13.664837,2.9831529,13.59802,2.896807,13.534535C1.0035692,12.142574,0,9.9397926,0,7.5159397Z" fill-rule="evenodd" fill="#000000" fill-opacity="1"/></svg>