<?xml version="1.0" standalone="no"?><!DOCTYPE svg PUBLIC "-//W3C//DTD SVG 1.1//EN" "http://www.w3.org/Graphics/SVG/1.1/DTD/svg11.dtd"><svg t="1776867494698" class="icon" viewBox="0 0 1024 1024" version="1.1" xmlns="http://www.w3.org/2000/svg" p-id="18817" xmlns:xlink="http://www.w3.org/1999/xlink" width="16" height="16"><path d="M426.666667 128a42.666667 42.666667 0 0 0-42.666667 42.666667 42.666667 42.666667 0 0 0 42.666667 42.666666h384a42.666667 42.666667 0 0 0 42.666666-42.666666 42.666667 42.666667 0 0 0-42.666666-42.666667zM213.333333 810.666667a42.666667 42.666667 0 0 0-42.666666 42.666666 42.666667 42.666667 0 0 0 42.666666 42.666667h384a42.666667 42.666667 0 0 0 42.666667-42.666667 42.666667 42.666667 0 0 0-42.666667-42.666666z" fill="#000000" p-id="18818"></path><path d="M655.018667 130.730667a42.666667 42.666667 0 0 0-54.954667 24.917333l-256 682.666667a42.666667 42.666667 0 0 0 24.917333 54.954666 42.666667 42.666667 0 0 0 54.954667-24.917333l256-682.666667a42.666667 42.666667 0 0 0-24.917333-54.954666z" fill="#000000" p-id="18819"></path></svg>