<svg xmlns="http://www.w3.org/2000/svg" xmlns:xlink="http://www.w3.org/1999/xlink" fill="none" version="1.1" width="15.499999046325684" height="11.5" viewBox="0 0 15.499999046325684 11.5"><path d="M15.499999,10.75C15.499999,10.335787,15.164212,10,14.749999,10C14.749999,10,0.75,10,0.75,10C0.33578587,10,0,10.335787,0,10.75C0,11.164213,0.33578587,11.5,0.75,11.5C0.75,11.5,14.749999,11.5,14.749999,11.5C15.164212,11.5,15.499999,11.164213,15.499999,10.75ZM15.499999,0.75C15.499999,0.33578643,15.164212,0,14.749999,0C14.749999,0,0.75,0,0.75,0C0.33578587,0,0,0.33578643,0,0.75C0,1.1642135,0.33578587,1.5,0.75,1.5C0.75,1.5,14.749999,1.5,14.749999,1.5C15.164212,1.5,15.499999,1.1642135,15.499999,0.75ZM15.499999,5.75C15.499999,5.3357863,15.164212,5,14.749999,5C14.749999,5,0.75,5,0.75,5C0.33578587,5,0,5.3357863,0,5.75C0,6.1642137,0.33578587,6.5,0.75,6.5C0.75,6.5,14.749999,6.5,14.749999,6.5C15.164212,6.5,15.499999,6.1642137,15.499999,5.75Z" fill-rule="evenodd" fill="#000000" fill-opacity="1"/></svg>