<?xml version="1.0" standalone="no"?><!DOCTYPE svg PUBLIC "-//W3C//DTD SVG 1.1//EN" "http://www.w3.org/Graphics/SVG/1.1/DTD/svg11.dtd"><svg t="1776867066979" class="icon" viewBox="0 0 1024 1024" version="1.1" xmlns="http://www.w3.org/2000/svg" p-id="14754" xmlns:xlink="http://www.w3.org/1999/xlink" width="16" height="16"><path d="M384 512a256 256 0 0 1 256-256h85.333333a256 256 0 0 1 0 512h-21.333333a42.666667 42.666667 0 1 1 0-85.333333h21.333333a170.666667 170.666667 0 0 0 0-341.333334h-85.333333a170.666667 170.666667 0 0 0-170.666667 170.666667 42.666667 42.666667 0 1 1-85.333333 0z" p-id="14755"></path><path d="M298.666667 341.333333a170.666667 170.666667 0 1 0 0 341.333334h85.333333a170.666667 170.666667 0 0 0 170.666667-170.666667 42.666667 42.666667 0 1 1 85.333333 0 256 256 0 0 1-256 256H298.666667A256 256 0 0 1 298.666667 256h21.333333a42.666667 42.666667 0 0 1 0 85.333333H298.666667z" p-id="14756"></path></svg>