<svg xmlns="http://www.w3.org/2000/svg" xmlns:xlink="http://www.w3.org/1999/xlink" fill="none" version="1.1" width="14.963555335998535" height="19.33247184753418" viewBox="0 0 14.963555335998535 19.33247184753418"><path d="M2.7879608,5.4809337L3.1034026,8.31991L2.4169016,8.3747149C1.3341742,8.4611511,0.45006925,9.2750549,0.27455384,10.346952C-0.091517955,12.582605,-0.091517955,14.862919,0.27455384,17.098572C0.45006928,18.170471,1.334175,18.984373,2.4169021,19.070808L3.9130318,19.190248C6.288415,19.379879,8.6751404,19.379879,11.050524,19.190248L12.546653,19.070808C13.629381,18.984373,14.513485,18.170469,14.689001,17.098572C15.055073,14.862919,15.055073,12.582605,14.689001,10.346952C14.513485,9.2750549,13.62938,8.4611511,12.546653,8.3747149L11.860051,8.3199024L12.175492,5.4809332C12.215935,5.1169558,12.215935,4.7496176,12.175492,4.3856401L12.152726,4.1807437C11.911239,2.0073538,10.202637,0.28769469,8.0308514,0.03219045C7.6660261,-0.01073014,7.2974277,-0.01073014,6.9326029,0.03219039C4.7608171,0.28769463,3.0522149,2.0073528,2.8107271,4.1807427L2.7879608,4.3856397C2.7475188,4.7496171,2.747519,5.1169562,2.7879608,5.4809337ZM7.8555889,1.5219164C7.607204,1.4926946,7.3562493,1.4926946,7.1078644,1.5219164C5.6292386,1.6958724,4.4659657,2.8666735,4.3015528,4.3463898L4.2787867,4.5512872C4.250577,4.805172,4.250577,5.0614014,4.2787867,5.3152866L4.5999484,8.2057428C6.519146,8.0821571,8.4443083,8.0821543,10.363506,8.2057362L10.684667,5.3152862C10.712876,5.0614009,10.712876,4.8051724,10.684668,4.5512877L10.661901,4.3463907C10.497488,2.8666739,9.3342152,1.6958724,7.8555889,1.5219164ZM4.0324006,9.7505188C6.3283319,9.5672302,8.6352215,9.5672302,10.931153,9.7505188L12.427284,9.8699579C12.822213,9.9014854,13.144694,10.19836,13.208714,10.589338C13.548501,12.66447,13.548501,14.781055,13.208714,16.856186C13.144694,17.247166,12.822214,17.544039,12.427285,17.575565L10.931155,17.695005C8.6352253,17.878294,6.328331,17.878294,4.0324001,17.695005L2.5362701,17.575565C2.1413412,17.544039,1.8188604,17.247164,1.7548406,16.856186C1.4150531,14.781055,1.4150531,12.66447,1.7548406,10.589338C1.8188605,10.19836,2.1413407,9.9014854,2.5362697,9.8699579L4.0324006,9.7505188ZM7.4817505,12.222763C6.6533232,12.222763,5.9817505,12.894336,5.9817505,13.722763C5.9817505,14.55119,6.6533232,15.222763,7.4817505,15.222763C8.3101778,15.222763,8.9817505,14.55119,8.9817505,13.722763C8.9817505,12.894336,8.3101778,12.222763,7.4817505,12.222763Z" fill-rule="evenodd" fill="#000000" fill-opacity="1"/></svg>