<svg xmlns="http://www.w3.org/2000/svg" xmlns:xlink="http://www.w3.org/1999/xlink" fill="none" version="1.1" width="21.5" height="19.247760772705078" viewBox="0 0 21.5 19.247760772705078"><path d="M10.75,16.373686C10.617052,16.375338,10.480249,16.341364,10.352287,16.264585L9.2170105,15.58342C6.9905205,14.247525,4.2675166,14.029339,1.8567162,14.993659C0.96739215,15.349388,0,14.694432,0,13.736601L0,2.0777202C0,1.4997706,0.3518697,0.98004824,0.88848191,0.76540333C3.9935699,-0.47663182,7.500771,-0.19560945,10.368469,1.5250095L10.75,1.7539281L11.131531,1.5250095C13.999229,-0.19560945,17.50643,-0.47663182,20.611519,0.76540333C21.14813,0.98004824,21.5,1.4997706,21.5,2.0777202L21.5,13.736601C21.5,14.694432,20.532608,15.349388,19.643284,14.993659C17.232483,14.029339,14.50948,14.247525,12.28299,15.58342L11.147713,16.264585C11.019751,16.341364,10.882947,16.375338,10.75,16.373686ZM1.5,13.523325L1.5,2.1365457C4.1563358,1.0935204,7.1477408,1.3418581,9.5967255,2.811249L10,3.0532136L10,14.303927L9.9887543,14.29718C7.4217935,12.757004,4.2957883,12.475302,1.5,13.523325ZM11.5,14.303927L11.511246,14.29718C14.078207,12.757004,17.204212,12.475302,20,13.523325L20,2.1365457C17.343664,1.0935204,14.352259,1.3418581,11.903275,2.811249L11.5,3.0532136L11.5,14.303927ZM1.4748391,16.670807C3.4986954,15.490225,6.0013032,15.490224,8.0251598,16.670807L9.1124191,17.305042C10.124347,17.895332,11.375653,17.895332,12.387581,17.305042L13.47484,16.670807C15.498697,15.490224,18.001305,15.490225,20.025162,16.670807L20.127903,16.73074C20.485693,16.939451,20.606544,17.398689,20.397835,17.756477C20.189123,18.114267,19.729885,18.235119,19.372097,18.026409L19.269354,17.966476C17.712542,17.058334,15.787459,17.058334,14.230647,17.966475L13.143388,18.60071C11.664415,19.463444,9.8355846,19.463444,8.3566132,18.60071L7.2693529,17.966475C5.7125406,17.058334,3.7874584,17.058334,2.2306457,17.966476L2.1279035,18.026409C1.7701144,18.235119,1.310876,18.114267,1.1021658,17.756477C0.89345562,17.398689,1.0143077,16.939451,1.3720968,16.73074L1.4748391,16.670807Z" fill-rule="evenodd" fill="#000000" fill-opacity="1"/></svg>