<svg xmlns="http://www.w3.org/2000/svg" xmlns:xlink="http://www.w3.org/1999/xlink" fill="none" version="1.1" width="17.5" height="19.5" viewBox="0 0 17.5 19.5"><path d="M11,3.25C11,1.4550745,12.455074,0,14.25,0C16.044926,0,17.5,1.4550745,17.5,3.25C17.5,5.0449252,16.044926,6.5,14.25,6.5C13.290375,6.5,12.427889,6.0840931,11.832967,5.4227023C11.832967,5.4227023,9.1156645,6.9048672,9.1156645,6.9048672C9.1156645,6.9048672,6.0751476,8.6423054,6.0751476,8.6423054C6.3455234,9.1164055,6.5,9.665163,6.5,10.25C6.5,10.54635,6.4603353,10.833434,6.3860259,11.106236C6.3860259,11.106236,11.832968,14.077296,11.832968,14.077296C12.42789,13.415906,13.290375,13,14.25,13C16.044926,13,17.5,14.455074,17.5,16.25C17.5,18.044926,16.044926,19.5,14.25,19.5C12.455074,19.5,11,18.044926,11,16.25C11,15.953646,11.039665,15.666556,11.113977,15.39375C11.113977,15.39375,5.6670408,12.422694,5.6670408,12.422694C5.0721183,13.08409,4.2096295,13.5,3.25,13.5C1.4550745,13.5,0,12.044926,0,10.25C0,8.4550743,1.4550745,7,3.25,7C3.9006779,7,4.5066953,7.191216,5.0149236,7.5205207C5.0149236,7.5205207,8.3843489,5.5951352,8.3843489,5.5951352C8.3843489,5.5951352,11.113976,4.1062474,11.113976,4.1062474C11.039665,3.8334422,11,3.5463533,11,3.25ZM14.25,1.5C13.283502,1.5,12.5,2.2835016,12.5,3.25C12.5,4.2164984,13.283502,5,14.25,5C15.216498,5,16,4.2164984,16,3.25C16,2.2835016,15.216498,1.5,14.25,1.5ZM3.25,8.5C2.2835016,8.5,1.5,9.2835016,1.5,10.25C1.5,11.216498,2.2835016,12,3.25,12C4.2164984,12,5,11.216498,5,10.25C5,9.2835016,4.2164984,8.5,3.25,8.5ZM12.5,16.25C12.5,15.283502,13.283502,14.5,14.25,14.5C15.216498,14.5,16,15.283502,16,16.25C16,17.216499,15.216498,18,14.25,18C13.283502,18,12.5,17.216499,12.5,16.25Z" fill-rule="evenodd" fill="#000000" fill-opacity="1"/></svg>