<svg xmlns="http://www.w3.org/2000/svg" xmlns:xlink="http://www.w3.org/1999/xlink" fill="none" version="1.1" width="21.5" height="11.5" viewBox="0 0 21.5 11.5"><path d="M0,5.75C0,2.5743628,2.5743628,0,5.75,0C7.9305749,0,9.8262424,1.213711,10.800804,3L19.75,3C20.716497,3,21.5,3.7835014,21.5,4.75L21.5,7.75C21.5,8.1642132,21.164213,8.5,20.75,8.5L19,8.5L19,10.75C19,11.164213,18.664213,11.5,18.25,11.5L14.75,11.5C14.335787,11.5,14,11.164213,14,10.75L14,8.5L10.800804,8.5C9.8262424,10.286289,7.9305744,11.5,5.75,11.5C2.5743628,11.5,0,8.9256372,0,5.75ZM5.75,1.5C3.4027901,1.5,1.5,3.4027901,1.5,5.75C1.5,8.0972099,3.4027901,10,5.75,10C7.4916053,10,8.9901838,8.9523087,9.6466923,7.4497213C9.7660456,7.1765509,10.035851,7,10.333957,7L14.75,7C15.164213,7,15.5,7.3357863,15.5,7.75L15.5,10L17.5,10L17.5,7.75C17.5,7.3357863,17.835787,7,18.25,7L20,7L20,4.75C20,4.6119289,19.888071,4.5,19.75,4.5L10.333957,4.5C10.035851,4.5,9.7660456,4.3234491,9.6466923,4.0502787C8.9901838,2.5476909,7.4916053,1.5,5.75,1.5ZM3.75,5.75C3.75,4.6454306,4.6454306,3.75,5.75,3.75C6.8545694,3.75,7.75,4.6454306,7.75,5.75C7.75,6.8545694,6.8545694,7.75,5.75,7.75C4.6454306,7.75,3.75,6.8545694,3.75,5.75Z" fill-rule="evenodd" fill="#000000" fill-opacity="1"/></svg>