<svg xmlns="http://www.w3.org/2000/svg" xmlns:xlink="http://www.w3.org/1999/xlink" fill="none" version="1.1" width="18.011215209960938" height="18.01114845275879" viewBox="0 0 18.011215209960938 18.01114845275879"><path d="M13.535686,0.51301134C12.660242,-0.36243182,11.177441,-0.076868653,10.689744,1.0610901C10.689744,1.0610901,9.0971575,4.7771263,9.0971575,4.7771263C7.5980806,4.4831505,5.9830008,4.9162102,4.8200946,6.0791163C4.8200946,6.0791163,3.1100006,7.7892103,3.1100006,7.7892103C2.8171077,8.0821037,2.8171074,8.5569773,3.1100006,8.8498707C3.1100006,8.8498707,5.605309,11.345179,5.605309,11.345179C5.605309,11.345179,0.21966982,16.730818,0.21966982,16.730818C-0.073223114,17.02371,-0.073223412,17.498585,0.21966982,17.791479C0.51256305,18.084372,0.98743695,18.084372,1.2803299,17.791479C1.2803299,17.791479,6.6659694,12.405839,6.6659694,12.405839C6.6659694,12.405839,9.1613588,14.901229,9.1613588,14.901229C9.3020105,15.041881,9.4927759,15.120898,9.6916895,15.120898C9.8906012,15.120899,10.081367,15.041882,10.222019,14.901229C10.222019,14.901229,11.932111,13.191137,11.932111,13.191137C13.095021,12.028227,13.52808,10.413137,13.234098,8.9140539C13.234098,8.9140539,16.950125,7.3214707,16.950125,7.3214707C18.088085,6.8337741,18.373646,5.3509727,17.498205,4.4755306C17.498205,4.4755306,13.535686,0.51301134,13.535686,0.51301134ZM12.068462,1.651969C12.138133,1.4894028,12.349962,1.4486089,12.475025,1.5736716C12.475025,1.5736716,16.437544,5.5361905,16.437544,5.5361905C16.562607,5.6612535,16.521812,5.8730822,16.359247,5.9427533C16.359247,5.9427533,12.043915,7.7921815,12.043915,7.7921815C11.679559,7.9483342,11.499638,8.361062,11.633224,8.7342834C12.04423,9.8825817,11.788864,11.213063,10.87145,12.130477C10.87145,12.130477,9.6916885,13.310238,9.6916885,13.310238C9.6916885,13.310238,4.7009912,8.31954,4.7009912,8.31954C4.7009912,8.31954,5.8807549,7.1397767,5.8807549,7.1397767C6.7981648,6.2223663,8.1286383,5.9669991,9.2769318,6.3779998C9.6501532,6.5115838,10.062879,6.3316627,10.219031,5.9673071C10.219031,5.9673071,12.068462,1.651969,12.068462,1.651969Z" fill-rule="evenodd" fill="#000000" fill-opacity="1"/></svg>