<svg xmlns="http://www.w3.org/2000/svg" xmlns:xlink="http://www.w3.org/1999/xlink" fill="none" version="1.1" width="19.5" height="19.5" viewBox="0 0 19.5 19.5"><path d="M12.75,0C13.164213,0,13.5,0.33578643,13.5,0.75L13.5,3.4220266C14.799942,3.6587944,15.837503,4.6859069,16.062101,6L18.75,6C19.164213,6,19.5,6.3357863,19.5,6.75C19.5,7.1642137,19.164213,7.5,18.75,7.5L16.212608,7.5C16.249117,7.9994812,16.273453,8.499629,16.285616,9L17.75,9C18.164213,9,18.5,9.3357868,18.5,9.75C18.5,10.164213,18.164213,10.5,17.75,10.5L16.285616,10.5C16.273453,11.000371,16.249117,11.500519,16.212608,12L18.75,12C19.164213,12,19.5,12.335787,19.5,12.75C19.5,13.164213,19.164213,13.5,18.75,13.5L16.062099,13.5C15.8375,14.814091,14.79994,15.8412,13.5,16.077969L13.5,18.75C13.5,19.164213,13.164213,19.5,12.75,19.5C12.335787,19.5,12,19.164213,12,18.75L12,16.226376C11.501727,16.261372,11.001233,16.284691,10.5,16.296333L10.5,17.75C10.5,18.164213,10.164213,18.5,9.75,18.5C9.3357868,18.5,9,18.164213,9,17.75L9,16.296333C8.4987669,16.284691,7.9982734,16.261372,7.5,16.226376L7.5,18.75C7.5,19.164213,7.1642137,19.5,6.75,19.5C6.3357863,19.5,6,19.164213,6,18.75L6,16.077967C4.7000628,15.841196,3.6625063,14.814089,3.4379063,13.5L0.74999994,13.5C0.33578637,13.5,0,13.164213,0,12.75C0,12.335787,0.33578643,12,0.75,12L3.2873981,12C3.2508888,11.500519,3.226553,11.000371,3.2143903,10.5L1.7499999,10.5C1.3357863,10.5,0.99999988,10.164213,0.99999994,9.75C1,9.3357868,1.3357865,9,1.75,9L3.2143903,9C3.2265527,8.499629,3.2508886,7.9994812,3.2873976,7.5L0.74999994,7.5C0.33578637,7.5,0,7.1642137,0,6.75C0,6.3357863,0.33578643,6,0.75,6L3.4379053,6C3.6625035,4.6859093,4.7000604,3.6587977,6,3.4220278L6,0.75C6,0.33578643,6.3357863,0,6.75,0C7.1642137,0,7.5,0.33578643,7.5,0.75L7.5,3.2736197C7.9982734,3.2386227,8.4987669,3.2153029,9,3.2036602L9,1.75C9,1.3357865,9.3357868,1,9.75,0.99999994C10.164213,0.99999994,10.5,1.3357863,10.5,1.7499999L10.5,3.20366C11.001233,3.2153027,11.501727,3.2386224,12,3.2736192L12,0.75C12,0.33578643,12.335787,0,12.75,0ZM13.116657,4.8809395C10.897881,4.6329589,8.6021261,4.6329589,6.3833494,4.8809395C5.6102695,4.9673424,4.9930854,5.5778522,4.9040823,6.3388276C4.6390076,8.605217,4.6390076,10.894777,4.9040823,13.161167C4.9930854,13.922142,5.6102695,14.532652,6.3833494,14.619055C8.6021271,14.867036,10.897881,14.867036,13.116657,14.619055C13.889736,14.532652,14.506921,13.922142,14.595923,13.161167C14.860998,10.894778,14.860998,8.605216,14.595923,6.3388271C14.506921,5.5778522,13.889737,4.9673424,13.116657,4.8809395ZM7.9417095,6.1974349C9.1341438,6.0641627,10.365844,6.0641627,11.558278,6.1974349C12.45628,6.2977996,13.184007,7.0046024,13.290338,7.9137292C13.433031,9.1337528,13.433031,10.366252,13.290338,11.586275C13.184007,12.495402,12.45628,13.202206,11.558278,13.30257C10.365843,13.435843,9.1341448,13.435843,7.94171,13.30257C7.0437083,13.202206,6.3159809,12.495402,6.2096505,11.586275C6.0669575,10.366251,6.0669575,9.1337538,6.2096505,7.9137297C6.3159809,7.0046024,7.0437078,6.2977996,7.9417095,6.1974349ZM11.391668,7.6881533C10.309962,7.5672565,9.1900253,7.5672565,8.1083193,7.6881533C7.8922668,7.7123003,7.7233868,7.8837056,7.6994948,8.0879803C7.5703425,9.1922321,7.5703425,10.307774,7.6994948,11.412024C7.7233868,11.616299,7.8922668,11.787704,8.1083193,11.811852C9.1900253,11.932749,10.309962,11.932749,11.391668,11.811852C11.607721,11.787704,11.776602,11.616299,11.800493,11.412024C11.929646,10.307774,11.929646,9.1922312,11.800493,8.0879803C11.776602,7.8837056,11.607721,7.7123003,11.391668,7.6881533Z" fill-rule="evenodd" fill="#000000" fill-opacity="1"/></svg>