<svg xmlns="http://www.w3.org/2000/svg" xmlns:xlink="http://www.w3.org/1999/xlink" fill="none" version="1.1" width="17.500017166137695" height="12.64119815826416" viewBox="0 0 17.500017166137695 12.64119815826416"><path d="M0.21014483,11.08933C-0.01143831,10.85955,-0.063296549,10.514692,0.080908112,10.229906C0.080908112,10.229906,0.78240961,8.8445282,0.78240961,8.8445282C2.4426765,5.5657072,5.8056283,3.4990656,9.4808359,3.4990673C9.4808359,3.4990673,9.8257303,3.4990673,9.8257303,3.4990673C9.8508883,2.9526873,9.883358,2.4065599,9.9231396,1.8608322C9.9231396,1.8608322,9.9909792,0.93019575,9.9909792,0.93019575C10.046148,0.17337412,10.890025,-0.24969299,11.529458,0.15888871C13.627121,1.4992492,15.450716,3.2263389,16.903038,5.2480965C16.903038,5.2480965,17.359144,5.8830347,17.359144,5.8830347C17.546974,6.1445093,17.546974,6.4966903,17.359144,6.7581644C17.359144,6.7581644,16.903038,7.3931031,16.903038,7.3931031C15.450715,9.4148607,13.62712,11.141951,11.529458,12.482309C10.890022,12.890893,10.046147,12.467823,9.9909782,11.711004C9.9909782,11.711004,9.9231386,10.780366,9.9231386,10.780366C9.8756313,10.128647,9.8385515,9.4763565,9.8118992,8.8237476C7.6620736,8.7616816,5.514863,9.1956005,3.5414977,10.106378C3.5414977,10.106378,1.0643091,11.249687,1.0643091,11.249687C0.77447456,11.383456,0.43172798,11.31911,0.21014483,11.08933ZM2.4283898,8.9680624C2.4283898,8.9680624,2.9129143,8.7444372,2.9129143,8.7444372C5.3240547,7.6316113,7.9695816,7.161799,10.594705,7.3634248C10.977015,7.3927884,11.275611,7.7057896,11.286942,8.0890579C11.312408,8.9504223,11.356484,9.8113766,11.419169,10.671312C11.419169,10.671312,11.424597,10.74577,11.424597,10.74577C13.068059,9.5841074,14.508313,8.1557188,15.684782,6.5179729C15.684782,6.5179729,15.826565,6.3205991,15.826565,6.3205991C15.826565,6.3205991,15.684783,6.1232262,15.684783,6.1232262C14.508314,4.4854803,13.068059,3.0570915,11.424598,1.8954295C11.424598,1.8954295,11.41917,1.9698876,11.41917,1.9698876C11.363214,2.7374945,11.322087,3.5059123,11.295788,4.2747097C11.281968,4.6787066,10.950459,4.9990683,10.546227,4.9990683C10.546227,4.9990683,9.4808359,4.9990678,9.4808359,4.9990678C6.5835223,4.9990659,3.9155536,6.5169659,2.4283898,8.9680624Z" fill-rule="evenodd" fill="#000000" fill-opacity="1"/></svg>