<svg xmlns="http://www.w3.org/2000/svg" xmlns:xlink="http://www.w3.org/1999/xlink" fill="none" version="1.1" width="16" height="18" viewBox="0 0 16 18"><path d="M2.7,5.01C2.48,4.95,2.3,4.8,2.21,4.6C2.11,4.4,2.11,4.17,2.21,3.97C2.21,3.97,3.87,0.43,3.87,0.43C4,0.17,4.26,0,4.55,0C4.84,0,5.11,0.17,5.23,0.43C5.23,0.43,5.96,2,5.96,2C6,1.99,6.01,1.98,6.04,1.98C10.39,0.81,14.86,3.39,16.02,7.74C17.19,12.09,14.61,16.55,10.26,17.72C5.91,18.88,1.44,16.3,0.28,11.96C-0.09,10.57,-0.08,9.18,0.24,7.88C0.34,7.48,0.75,7.23,1.15,7.33C1.55,7.43,1.8,7.84,1.7,8.24C1.43,9.3,1.43,10.44,1.73,11.57C2.68,15.12,6.32,17.22,9.87,16.27C13.42,15.32,15.52,11.67,14.57,8.13C13.64,4.64,10.1,2.54,6.6,3.38C6.6,3.38,7.34,4.96,7.34,4.96C7.47,5.23,7.43,5.54,7.24,5.76C7.05,5.98,6.75,6.08,6.47,6.01C6.47,6.01,2.7,5.01,2.7,5.01Z" fill="#000000" fill-opacity="1"/></svg>