<svg xmlns="http://www.w3.org/2000/svg" xmlns:xlink="http://www.w3.org/1999/xlink" fill="none" version="1.1" width="16.302358627319336" height="17.998125076293945" viewBox="0 0 16.302358627319336 17.998125076293945"><path d="M2.6965513,5.0095763C2.4813304,4.952796,2.302449,4.8033528,2.2082877,4.6016655C2.1141264,4.3999782,2.1144149,4.1668868,2.2090745,3.9654329C2.2090745,3.9654329,3.8698273,0.43104443,3.8698273,0.43104443C3.993588,0.16765872,4.2585402,-0.00035870337,4.5495534,5.7505395e-7C4.8405662,0.00036117577,5.1051016,0.16903353,5.2282104,0.43272454C5.2282104,0.43272454,5.9608359,2.00196,5.9608359,2.00196C5.9870315,1.9916667,6.0140748,1.9827385,6.0419054,1.9752812C10.389254,0.81041265,14.857789,3.3903222,16.022657,7.7376709C17.187527,12.08502,14.607616,16.553555,10.260267,17.718422C5.9129186,18.883291,1.4443839,16.303383,0.27951521,11.956034C-0.090907484,10.573597,-0.082574308,9.1767082,0.2418589,7.8779759C0.34224761,7.4761114,0.74940419,7.2317176,1.1512686,7.3321061C1.553133,7.4324946,1.7975273,7.8396521,1.6971385,8.2415161C1.4328443,9.2995071,1.4255602,10.437577,1.7284039,11.567805C2.6788597,15.114954,6.3248892,17.21999,9.8720388,16.269533C13.419188,15.319077,15.524224,11.673049,14.573769,8.1259003C13.638853,4.6367478,10.095792,2.5429363,6.6041946,3.3799918C6.6041946,3.3799918,7.3433857,4.9632912,7.3433857,4.9632912C7.4664946,5.2269821,7.425951,5.5380855,7.2393727,5.7614174C7.0527945,5.9847498,6.7538652,6.0799904,6.4724793,6.0057545C6.4724793,6.0057545,2.6965513,5.0095763,2.6965513,5.0095763Z" fill="#000000" fill-opacity="1"/></svg>