<svg xmlns="http://www.w3.org/2000/svg" xmlns:xlink="http://www.w3.org/1999/xlink" fill="none" version="1.1" width="16.5" height="18.5" viewBox="0 0 16.5 18.5"><path d="M4.75,0C2.1266479,0,0,2.1266475,0,4.75L0,14.75C0,16.821068,1.678932,18.5,3.7499998,18.5L14.75,18.5C15.716498,18.5,16.5,17.716499,16.5,16.75L16.5,1.75C16.5,0.7835018,15.716498,0,14.75,0L4.75,0ZM3.7499998,11C2.9057953,11,2.1267452,11.278958,1.5,11.749725L1.5,4.75C1.5,2.9550748,2.9550748,1.5,4.75,1.5L14.75,1.5C14.888071,1.5,15,1.6119287,15,1.75L15,11L3.7499998,11ZM11.7694,5.2910414C12.068209,5.0041852,12.077898,4.5294104,11.791041,4.2306023C11.504185,3.9317937,11.02941,3.9221044,10.730602,4.2089605L8.125001,6.7103376L6.7693996,5.4089603C6.4705915,5.1221046,5.9958167,5.131794,5.7089605,5.4306021C5.4221044,5.7294106,5.4317937,6.2041855,5.7306023,6.4910417L7.6056023,8.2910423C7.8958235,8.5696545,8.3541784,8.5696545,8.6443996,8.2910423L11.7694,5.2910414ZM3.7499998,17C2.5073593,17,1.5,15.99264,1.5,14.75C1.5,13.50736,2.5073593,12.5,3.7499998,12.5L15,12.5L15,16.75C15,16.888071,14.888071,17,14.75,17L3.7499998,17Z" fill-rule="evenodd" fill="#000000" fill-opacity="1"/></svg>