<svg xmlns="http://www.w3.org/2000/svg" xmlns:xlink="http://www.w3.org/1999/xlink" fill="none" version="1.1" width="18.84772491455078" height="16.31522560119629" viewBox="0 0 18.84772491455078 16.31522560119629"><path d="M8.0399961,0C6.2351432,0,4.7594819,1.4094381,4.6536241,3.1877048L2.6215277,3.3527377C1.510612,3.4429586,0.59697753,4.2644634,0.38962534,5.3595796C-0.091449916,7.9003453,-0.12732092,10.505387,0.28361252,13.058435L0.38086301,13.662634C0.58247364,14.915201,1.6133884,15.868156,2.8779147,15.970853L4.8202429,16.128595C7.8842816,16.377434,10.963443,16.377436,14.027481,16.128595L15.96981,15.970853C17.234337,15.868156,18.265251,14.915199,18.466862,13.662632L18.564114,13.058434C18.975046,10.505385,18.939175,7.9003458,18.458099,5.35958C18.250748,4.2644644,17.337114,3.4429588,16.226198,3.3527377L14.194102,3.1877048C14.088244,1.4094377,12.61258,0,10.807728,0L8.0399961,0ZM6.1475472,3.3924484C6.1475472,2.3472779,6.9948254,1.5,8.0399961,1.5L10.807728,1.5C11.8529,1.5,12.700179,2.3472786,12.700179,3.3924484C12.700179,4.0584111,13.211403,4.6128354,13.875179,4.6667428L16.104778,4.8478155C16.542547,4.883368,16.902576,5.2070918,16.984285,5.6386361C17.433029,8.0086422,17.46649,10.438601,17.083174,12.820065L16.985924,13.424263C16.894079,13.994872,16.424444,14.428991,15.84839,14.475775L13.906061,14.633517C10.922836,14.875794,7.9248881,14.875794,4.9416628,14.633517L2.9993346,14.475775C2.4232798,14.428991,1.9536458,13.994873,1.861802,13.424265L1.7645515,12.820066C1.3812361,10.438603,1.4146962,8.0086412,1.8634393,5.6386356C1.9451489,5.2070918,2.3051775,4.883368,2.7429476,4.8478155L4.9725471,4.6667423C5.6363239,4.6128349,6.1475472,4.0584106,6.1475472,3.3924484ZM9.4238625,5C7.3527946,5,5.6738629,6.6789322,5.6738629,8.75C5.6738629,10.821068,7.3527946,12.5,9.4238625,12.5C11.49493,12.5,13.173862,10.821068,13.173862,8.75C13.173862,6.6789322,11.49493,5,9.4238625,5ZM7.1738629,8.75C7.1738629,7.5073595,8.181222,6.5,9.4238625,6.5C10.666503,6.5,11.673862,7.5073595,11.673862,8.75C11.673862,9.9926405,10.666503,11,9.4238625,11C8.181222,11,7.1738629,9.9926405,7.1738629,8.75Z" fill-rule="evenodd" fill="#000000" fill-opacity="1"/></svg>