<svg xmlns="http://www.w3.org/2000/svg" xmlns:xlink="http://www.w3.org/1999/xlink" fill="none" version="1.1" width="17.399478912353516" height="17.39946937561035" viewBox="0 0 17.399478912353516 17.39946937561035"><path d="M10.963515,12.024166C8.3132467,14.14682,4.4338136,13.979755,1.9770291,11.522971C-0.6590097,8.8869314,-0.6590097,4.6130681,1.9770291,1.9770293C4.6130681,-0.65900993,8.8869314,-0.65900946,11.52297,1.9770293C13.979752,4.4338107,14.14682,8.3132362,12.024175,10.963506C12.024175,10.963506,17.179808,16.119139,17.179808,16.119139C17.472702,16.412031,17.472702,16.886906,17.179808,17.179798C16.886915,17.472692,16.412041,17.472692,16.119148,17.179798C16.119148,17.179798,10.963515,12.024166,10.963515,12.024166ZM3.0376892,10.462311C0.98743677,8.4120579,0.98743677,5.0879421,3.0376892,3.0376894C5.0879416,0.98743677,8.4120579,0.98743701,10.462311,3.0376894C12.511058,5.0864372,12.512562,8.4071779,10.466823,10.457793C10.465308,10.459282,10.463799,10.46078,10.462294,10.462285C10.460789,10.46379,10.459291,10.465301,10.457801,10.466815C8.4071865,12.512562,5.0864391,12.51106,3.0376892,10.462311Z" fill-rule="evenodd" fill="#000000" fill-opacity="1"/></svg>