<svg xmlns="http://www.w3.org/2000/svg" xmlns:xlink="http://www.w3.org/1999/xlink" fill="none" version="1.1" width="16" height="15.999991416931152" viewBox="0 0 16 15.999991416931152"><path d="M10.081696,11.057035C7.6445937,13.00896,4.0771918,12.855332,1.8180122,10.596153C-0.60600406,8.1721354,-0.60600406,4.2420287,1.8180122,1.8180125C4.2420287,-0.6060043,8.1721354,-0.60600388,10.596152,1.8180125C12.855329,4.0771894,13.00896,7.6445842,11.057043,10.081686C11.057043,10.081686,15.797997,14.82264,15.797997,14.82264C16.067333,15.091975,16.067333,15.528654,15.797997,15.797989C15.528663,16.067326,15.091984,16.067326,14.822649,15.797989C14.822649,15.797989,10.081696,11.057035,10.081696,11.057035ZM2.7933612,9.6208038C0.90801501,7.7354574,0.90801501,4.6787076,2.7933612,2.7933612C4.6787071,0.90801501,7.7354574,0.90801525,9.6208038,2.7933612C11.504766,4.6773238,11.506148,7.7309699,9.6249523,9.6166496C9.62356,9.6180182,9.6221714,9.6193962,9.6207876,9.62078C9.6194038,9.6221638,9.6180267,9.6235533,9.6166563,9.6249456C7.7309775,11.506148,4.6773252,11.504767,2.7933612,9.6208038Z" fill-rule="evenodd" fill="#000000" fill-opacity="1"/></svg>