<svg xmlns="http://www.w3.org/2000/svg" xmlns:xlink="http://www.w3.org/1999/xlink" fill="none" version="1.1" width="21.061067581176758" height="21.061065673828125" viewBox="0 0 21.061067581176758 21.061065673828125"><path d="M11.429342,0.38130069C10.937974,-0.12709975,10.123089,-0.12710065,9.6317196,0.38130057L7.3128653,2.7805338L4.0305338,2.7805338C3.3401785,2.7805338,2.7805338,3.3401768,2.7805338,4.0305333L2.7805338,7.3128657L0.38130012,9.6317234C-0.12710056,10.123092,-0.12709954,10.937977,0.38130024,11.429344L2.7805338,13.748202L2.7805338,17.030533C2.7805338,17.720888,3.3401778,18.280533,4.0305338,18.280533L7.3128638,18.280533L9.6317196,20.679766C10.123088,21.188166,10.937973,21.188168,11.429341,20.679766L13.748199,18.280533L17.030535,18.280533C17.72089,18.280533,18.280535,17.72089,18.280535,17.030533L18.280535,13.748198L20.679768,11.429345C21.188169,10.937977,21.188168,10.123091,20.679768,9.6317225L18.280535,7.3128705L18.280535,4.0305338C18.280535,3.3401783,17.720892,2.7805338,17.030535,2.7805338L13.748197,2.7805338L11.429342,0.38130069ZM8.3177338,3.8992331L10.530531,1.6097332L12.743329,3.8992331C12.978854,4.1429229,13.303234,4.2805338,13.64214,4.2805338L16.780535,4.2805338L16.780535,7.4189281C16.780535,7.7578335,16.918146,8.0822144,17.161837,8.3177395L19.451336,10.530535L17.161837,12.743329C16.918146,12.978854,16.780535,13.303234,16.780535,13.64214L16.780535,16.780533L13.642141,16.780533C13.303236,16.780533,12.978856,16.918144,12.74333,17.161833L10.530531,19.451334L8.3177319,17.161833C8.0822067,16.918144,7.7578268,16.780533,7.418921,16.780533L4.2805338,16.780533L4.2805338,13.642145C4.2805338,13.30324,4.1429229,12.978861,3.8992336,12.743335L1.6097327,10.530534L3.8992333,8.3177328C4.1429224,8.0822077,4.2805338,7.7578282,4.2805338,7.4189224L4.2805338,4.2805338L7.4189224,4.2805338C7.7578282,4.2805338,8.0822086,4.1429224,8.3177338,3.8992331ZM10.530534,5.7805338C7.9071813,5.7805338,5.7805338,7.9071813,5.7805338,10.530534C5.7805338,13.153887,7.9071813,15.280534,10.530534,15.280534C13.153887,15.280534,15.280534,13.153887,15.280534,10.530534C15.280534,7.9071813,13.153887,5.7805338,10.530534,5.7805338ZM7.2805338,10.530534C7.2805338,8.7356081,8.7356081,7.2805338,10.530534,7.2805338C12.325459,7.2805338,13.780534,8.7356081,13.780534,10.530534C13.780534,12.325459,12.325459,13.780534,10.530534,13.780534C8.7356081,13.780534,7.2805338,12.325459,7.2805338,10.530534Z" fill-rule="evenodd" fill="#000000" fill-opacity="1"/></svg>