<svg xmlns="http://www.w3.org/2000/svg" xmlns:xlink="http://www.w3.org/1999/xlink" fill="none" version="1.1" width="18.787015914916992" height="17.65977668762207" viewBox="0 0 18.787015914916992 17.65977668762207"><path d="M7.8798747,0.87169892C8.5542908,-0.29056805,10.232726,-0.29056484,10.907142,0.87169975C10.907142,0.87169975,12.972494,4.4310603,12.972494,4.4310603C13.162868,4.7591443,13.491919,4.9830351,13.866982,5.0396838C13.866982,5.0396838,17.296629,5.5576901,17.296629,5.5576901C18.79163,5.7834916,19.316021,7.6710615,18.151741,8.6356564C18.151741,8.6356564,15.65284,10.705972,15.65284,10.705972C15.302098,10.996557,15.137179,11.454922,15.222381,11.902361C15.222381,11.902361,15.922363,15.578335,15.922363,15.578335C16.19656,17.018288,14.684936,18.137081,13.387922,17.454151C13.387922,17.454151,9.9758863,15.657572,9.9758863,15.657572C9.6113567,15.465631,9.1756582,15.465631,8.8111286,15.657571C8.8111286,15.657571,5.3990951,17.454149,5.3990951,17.454149C4.1020823,18.137081,2.5904562,17.018286,2.8646536,15.578333C2.8646536,15.578333,3.5646358,11.90236,3.5646358,11.90236C3.649837,11.454923,3.4849181,10.996557,3.1341755,10.705971C3.1341755,10.705971,0.63527358,8.6356554,0.63527358,8.6356554C-0.5290103,7.6710582,-0.0046069622,5.7834907,1.4903884,5.5576897C1.4903884,5.5576897,4.9200349,5.0396838,4.9200349,5.0396838C5.2950974,4.9830351,5.6241469,4.7591443,5.8145213,4.4310598C5.8145213,4.4310598,7.8798747,0.87169892,7.8798747,0.87169892ZM9.6097403,1.624529C9.5133953,1.4584899,9.2736187,1.4584913,9.1772747,1.6245281C9.1772747,1.6245281,7.1119218,5.1838889,7.1119218,5.1838889C6.6930995,5.9056735,5.9691896,6.3982344,5.1440506,6.5228615C5.1440506,6.5228615,1.7144043,7.0408678,1.7144043,7.0408678C1.5008321,7.0731254,1.4259195,7.3427777,1.5922446,7.4805765C1.5922446,7.4805765,4.0911465,9.5508919,4.0911465,9.5508919C4.8627791,10.190182,5.2256021,11.198586,5.0381584,12.18295C5.0381584,12.18295,4.3381763,15.858923,4.3381763,15.858923C4.299006,16.064629,4.5149508,16.224459,4.7002406,16.126896C4.7002406,16.126896,8.1122742,14.330317,8.1122742,14.330317C8.9142408,13.908049,9.8727751,13.90805,10.674741,14.330317C10.674741,14.330317,14.086777,16.126896,14.086777,16.126896C14.272066,16.224459,14.48801,16.064631,14.44884,15.858923C14.44884,15.858923,13.748858,12.18295,13.748858,12.18295C13.561415,11.198586,13.924236,10.190183,14.695868,9.5508928C14.695868,9.5508928,17.194771,7.480577,17.194771,7.480577C17.361099,7.3427753,17.28618,7.0731249,17.072613,7.0408683C17.072613,7.0408683,13.642965,6.522862,13.642965,6.522862C12.817827,6.3982348,12.093917,5.9056745,11.675094,5.1838894C11.675094,5.1838894,9.6097403,1.624529,9.6097403,1.624529Z" fill-rule="evenodd" fill="#000000" fill-opacity="1"/></svg>