<svg xmlns="http://www.w3.org/2000/svg" xmlns:xlink="http://www.w3.org/1999/xlink" fill="none" version="1.1" width="20.822872161865234" height="19.041257858276367" viewBox="0 0 20.822872161865234 19.041257858276367"><path d="M11.27637,0.49811399C10.89099,-0.16603667,9.9318838,-0.16603929,9.5465021,0.49811387C9.5465021,0.49811387,6.8324499,5.1754222,6.8324499,5.1754222C6.642076,5.5035067,6.3130264,5.7273979,5.9379635,5.7840462C5.9379635,5.7840462,0.85165042,6.5522718,0.85165042,6.5522718C-0.0026322007,6.6813011,-0.30229187,7.7599106,0.36301357,8.3111095C0.36301357,8.3111095,4.1521044,11.450333,4.1521044,11.450333C4.5028467,11.740919,4.6677661,12.199284,4.5825644,12.646722C4.5825644,12.646722,3.5913968,17.851862,3.5913968,17.851862C3.4347124,18.674694,4.2985005,19.314003,5.039649,18.923758C5.039649,18.923758,9.8290577,16.401934,9.8290577,16.401934C10.193587,16.209993,10.629285,16.209991,10.993815,16.401934C10.993815,16.401934,15.783224,18.923758,15.783224,18.923758C16.524374,19.314003,17.388161,18.674694,17.231476,17.851862C17.231476,17.851862,16.240309,12.646722,16.240309,12.646722C16.155107,12.199284,16.320028,11.740919,16.670769,11.450333C16.670769,11.450333,20.459858,8.3111095,20.459858,8.3111095C21.12516,7.7599134,20.82551,6.6813016,19.971222,6.5522718C19.971222,6.5522718,14.884911,5.7840466,14.884911,5.7840466C14.509847,5.7273979,14.180798,5.5035067,13.990423,5.1754231C13.990423,5.1754231,11.27637,0.49811399,11.27637,0.49811399Z" fill="currentColor" fill-opacity="1"/></svg>