<svg xmlns="http://www.w3.org/2000/svg" xmlns:xlink="http://www.w3.org/1999/xlink" fill="none" version="1.1" width="12" height="13.51506233215332" viewBox="0 0 12 13.51506233215332"><path d="M3.2756803,0.22751887C3.7108831,0.38785681,3.9999998,0.80248761,3.9999998,1.2662868C3.9999998,1.2662868,3.9999993,12.248775,3.9999993,12.248775C3.9999993,12.712575,3.7108827,13.127206,3.2756798,13.287543C2.4522786,13.590902,1.5477207,13.590902,0.7243194,13.287543C0.28911656,13.127206,-2.3169459e-8,12.712575,0,12.248776C0,12.248776,5.4863972e-7,1.2662874,5.4863972e-7,1.2662874C5.7180921e-7,0.80248821,0.28911722,0.38785669,0.72432005,0.22751878C1.5477213,-0.075839624,2.4522791,-0.075839594,3.2756803,0.22751887ZM11.275681,0.22751887C11.710883,0.38785681,12,0.80248761,12,1.2662868C12,1.2662868,11.999999,12.248775,11.999999,12.248775C11.999999,12.712575,11.710882,13.127206,11.27568,13.287543C10.452278,13.590902,9.5477209,13.590902,8.7243195,13.287543C8.2891169,13.127206,8,12.712575,8,12.248776C8,12.248776,8.000001,1.2662874,8.000001,1.2662874C8.000001,0.80248821,8.2891178,0.38785669,8.7243204,0.22751878C9.5477219,-0.075839624,10.452279,-0.075839594,11.275681,0.22751887Z" fill="#000000" fill-opacity="1"/></svg>