<svg xmlns="http://www.w3.org/2000/svg" xmlns:xlink="http://www.w3.org/1999/xlink" fill="none" version="1.1" width="16.95260238647461" height="16.980113983154297" viewBox="0 0 16.95260238647461 16.980113983154297"><path d="M13.159553,0.25880963C10.071999,-0.086269855,6.8806057,-0.086269855,3.7930522,0.25880963C1.966671,0.46293455,0.49177226,1.9015769,0.27692294,3.7385385C-0.092307597,6.8954601,-0.092307657,10.084654,0.27692291,13.241575C0.49177223,15.078536,1.9666693,16.517179,3.7930508,16.721304C6.8806067,17.066383,10.071998,17.066383,13.159554,16.721304C14.985934,16.517179,16.460831,15.078537,16.67568,13.241575C17.04491,10.084654,17.04491,6.8954601,16.67568,3.7385387C16.460831,1.9015771,14.985933,0.46293458,13.159553,0.25880963ZM3.959662,1.7495279C6.9364867,1.4168239,10.016117,1.4168239,12.992943,1.7495279C14.137374,1.877435,15.053427,2.7806802,15.185837,3.9127896C15.541527,6.9539385,15.541527,10.026176,15.185837,13.067325C15.053427,14.199434,14.137375,15.102678,12.992944,15.230586C10.016116,15.563291,6.9364877,15.563291,3.9596605,15.230586C2.8152292,15.102678,1.899178,14.199434,1.7667675,13.067325C1.4110775,10.026175,1.4110775,6.9539375,1.7667675,3.9127893C1.8991778,2.7806799,2.8152301,1.877435,3.959662,1.7495279ZM9.4763184,4.490057C9.4763184,5.0423417,9.0286026,5.490057,8.4763184,5.490057C7.9240336,5.490057,7.4763184,5.0423417,7.4763184,4.490057C7.4763184,3.9377723,7.9240336,3.490057,8.4763184,3.490057C9.0286026,3.490057,9.4763184,3.9377723,9.4763184,4.490057ZM9.2263184,7.990057C9.2263184,7.5758433,8.8905315,7.240057,8.4763184,7.240057C8.0621052,7.240057,7.7263184,7.5758433,7.7263184,7.990057L7.7263188,12.990057C7.7263188,13.404271,8.0621052,13.740057,8.4763184,13.740057C8.8905325,13.740057,9.2263184,13.40427,9.2263184,12.990057L9.2263184,7.990057Z" fill-rule="evenodd" fill="#000000" fill-opacity="1"/></svg>