<svg xmlns="http://www.w3.org/2000/svg" xmlns:xlink="http://www.w3.org/1999/xlink" fill="none" version="1.1" width="17.463144302368164" height="17.5" viewBox="0 0 17.463144302368164 17.5"><path d="M8.2362747,1.5179195C4.4719424,1.7814434,1.5,4.9186544,1.5,8.75C1.5,12.754065,4.7459354,16,8.75,16C11.957871,16,14.679688,13.91619,15.634827,11.028669C14.899731,11.332356,14.094118,11.5,13.25,11.5C9.7982206,11.5,7,8.7017803,7,5.25C7,3.8508568,7.4601145,2.5590894,8.2362747,1.5179195ZM0,8.75C0,3.9175081,3.9175081,0,8.75,0C9.1996164,0,9.641777,0.033976078,10.07395,0.099619031C10.372912,0.14502859,10.61536,0.36553439,10.688843,0.65886164C10.762325,0.95218891,10.652465,1.2609525,10.410218,1.4419416C9.2492304,2.3093488,8.5,3.6920824,8.5,5.25C8.5,7.8733525,10.626647,10,13.25,10C14.384232,10,15.423804,9.6033983,16.240549,8.9406404C16.475239,8.7501974,16.80131,8.7192345,17.06765,8.8621006C17.333992,9.0049677,17.488552,9.2937431,17.459705,9.5946016C17.034328,14.031196,13.297706,17.5,8.75,17.5C3.9175081,17.5,0,13.582491,0,8.75Z" fill-rule="evenodd" fill="#000000" fill-opacity="1"/></svg>