<svg xmlns="http://www.w3.org/2000/svg" xmlns:xlink="http://www.w3.org/1999/xlink" fill="none" version="1.1" width="21.5" height="21.5" viewBox="0 0 21.5 21.5"><path d="M10.75,0C11.164213,0,11.5,0.33578643,11.5,0.75L11.5,1.75C11.5,2.1642137,11.164213,2.5,10.75,2.5C10.335787,2.5,10,2.1642137,10,1.75L10,0.75C10,0.33578643,10.335787,0,10.75,0ZM18.351376,4.2092762C18.644268,3.916383,18.644268,3.4415095,18.351376,3.1486163C18.058481,2.8557229,17.583609,2.8557229,17.290714,3.1486163L16.583609,3.8557229C16.290714,4.1486163,16.290714,4.6234899,16.583609,4.9163833C16.876501,5.2092762,17.351376,5.2092762,17.644268,4.9163833L18.351376,4.2092762ZM3.1486163,3.1486249C3.4415095,2.8557317,3.916383,2.8557317,4.2092762,3.1486249L4.9163833,3.8557317C5.2092762,4.1486249,5.2092762,4.6234989,4.9163833,4.9163918C4.6234899,5.2092853,4.1486163,5.2092853,3.8557229,4.9163918L3.1486163,4.2092853C2.8557229,3.9163918,2.8557229,3.4415183,3.1486163,3.1486249ZM10.75,5C7.5743628,5,5,7.5743628,5,10.75C5,13.925637,7.5743628,16.5,10.75,16.5C13.925637,16.5,16.5,13.925637,16.5,10.75C16.5,7.5743628,13.925637,5,10.75,5ZM6.5,10.75C6.5,8.4027901,8.4027901,6.5,10.75,6.5C13.09721,6.5,15,8.4027901,15,10.75C15,13.09721,13.09721,15,10.75,15C8.4027901,15,6.5,13.09721,6.5,10.75ZM1.7499999,11.5C2.1642134,11.5,2.5,11.164213,2.5,10.75C2.5,10.335787,2.1642137,10,1.75,10L0.75,10C0.33578646,10,0,10.335786,0,10.75C0,11.164213,0.3357864,11.5,0.74999994,11.5L1.7499999,11.5ZM21.5,10.75C21.5,11.164213,21.164213,11.5,20.75,11.5L19.75,11.5C19.335787,11.5,19,11.164213,19,10.75C19,10.335786,19.335787,10,19.75,10L20.75,10C21.164213,10,21.5,10.335787,21.5,10.75ZM4.9163165,17.644274C5.2092094,17.351381,5.2092094,16.876507,4.9163165,16.583614C4.6234231,16.29072,4.1485496,16.29072,3.8556561,16.583614L3.1485496,17.29072C2.8556564,17.583614,2.8556561,18.058487,3.1485496,18.351381C3.4414427,18.644274,3.9163165,18.644274,4.2092094,18.351381L4.9163165,17.644274ZM17.644335,16.583622C17.351442,16.29073,16.876568,16.29073,16.583675,16.583622C16.290781,16.876516,16.290781,17.351389,16.583675,17.644283L17.290781,18.351389C17.583675,18.644283,18.058548,18.644283,18.351442,18.351389C18.644335,18.058496,18.644335,17.583622,18.351442,17.29073L17.644335,16.583622ZM10.75,19C11.164213,19,11.5,19.335787,11.5,19.75L11.5,20.75C11.5,21.164213,11.164213,21.5,10.75,21.5C10.335787,21.5,10,21.164213,10,20.75L10,19.75C10,19.335787,10.335787,19,10.75,19Z" fill-rule="evenodd" fill="#000000" fill-opacity="1"/></svg>