<svg xmlns="http://www.w3.org/2000/svg" xmlns:xlink="http://www.w3.org/1999/xlink" fill="none" version="1.1" width="17.5" height="17.5" viewBox="0 0 17.5 17.5"><path d="M0,8.75C0,3.9175081,3.9175081,0,8.75,0C13.582492,0,17.5,3.9175081,17.5,8.75C17.5,13.582492,13.582492,17.5,8.75,17.5C3.9175081,17.5,0,13.582492,0,8.75ZM8.75,1.5C4.7459354,1.5,1.5,4.7459354,1.5,8.75C1.5,12.754065,4.7459354,16,8.75,16C12.754065,16,16,12.754065,16,8.75C16,4.7459354,12.754065,1.5,8.75,1.5ZM8.75,3C9.1642132,3,9.5,3.3357863,9.5,3.75L9.5,8.3343143L12.147499,9.9890013C12.498752,10.208534,12.605532,10.671247,12.385999,11.022499C12.166466,11.373752,11.703753,11.480532,11.352501,11.260999L8.3525009,9.3859987C8.133215,9.2489452,8,9.0085926,8,8.75L8,3.75C8,3.3357863,8.3357868,3,8.75,3Z" fill-rule="evenodd" fill="#000000" fill-opacity="1"/></svg>