<?xml version="1.0" standalone="no"?><!DOCTYPE svg PUBLIC "-//W3C//DTD SVG 1.1//EN" "http://www.w3.org/Graphics/SVG/1.1/DTD/svg11.dtd"><svg t="1776867706850" class="icon" viewBox="0 0 1024 1024" version="1.1" xmlns="http://www.w3.org/2000/svg" p-id="19637" xmlns:xlink="http://www.w3.org/1999/xlink" width="16" height="16"><path d="M256 128a42.666667 42.666667 0 0 0-42.666667 42.666667v256c0 164.437333 134.229333 298.666667 298.666667 298.666666s298.666667-134.229333 298.666667-298.666666V170.666667a42.666667 42.666667 0 0 0-42.666667-42.666667 42.666667 42.666667 0 0 0-42.666667 42.666667v256c0 118.314667-95.018667 213.333333-213.333333 213.333333s-213.333333-95.018667-213.333333-213.333333V170.666667a42.666667 42.666667 0 0 0-42.666667-42.666667zM170.666667 810.666667a42.666667 42.666667 0 0 0-42.666667 42.666666 42.666667 42.666667 0 0 0 42.666667 42.666667h682.666666a42.666667 42.666667 0 0 0 42.666667-42.666667 42.666667 42.666667 0 0 0-42.666667-42.666666z" fill="#000000" p-id="19638"></path></svg>