<svg xmlns="http://www.w3.org/2000/svg" xmlns:xlink="http://www.w3.org/1999/xlink" fill="none" version="1.1" width="17.64312744140625" height="12.74083423614502" viewBox="0 0 17.64312744140625 12.74083423614502"><path d="M17.432981,11.177146C17.654564,10.947366,17.706423,10.602509,17.562218,10.317722C17.562218,10.317722,16.832092,8.8758154,16.832092,8.8758154C15.171824,5.5969944,11.808876,3.5303566,8.1336679,3.5303583C8.1336679,3.5303583,7.7298141,3.5303583,7.7298141,3.5303583C7.7043929,2.9770155,7.6715369,2.4239292,7.631249,1.8712482C7.631249,1.8712482,7.5628028,0.9322862,7.5628028,0.9322862C7.5075097,0.17376417,6.6617355,-0.25025567,6.0208645,0.15924728C3.9051571,1.5111387,2.0658739,3.2530847,0.60105664,5.2922354C0.60105664,5.2922354,0.14087249,5.9328523,0.14087249,5.9328523C-0.046957493,6.1943274,-0.046957493,6.5465083,0.14087246,6.8079829C0.14087246,6.8079829,0.60105842,7.4486012,0.60105842,7.4486012C2.0658753,9.487752,3.9051571,11.229697,6.0208645,12.581586C6.6617384,12.991092,7.5075107,12.567067,7.5628037,11.808548C7.5628037,11.808548,7.6312499,10.869586,7.6312499,10.869586C7.6793294,10.210029,7.7168221,9.5498915,7.7437282,8.8894329C9.9159031,8.8257589,12.085598,9.2637253,14.079473,10.183969C14.079473,10.183969,16.578817,11.337503,16.578817,11.337503C16.868652,11.471272,17.211399,11.406926,17.432981,11.177146ZM15.222136,9.0592937C15.222136,9.0592937,14.708057,8.8220282,14.708057,8.8220282C12.276395,7.6997304,9.6083488,7.2259183,6.9608817,7.4292603C6.5785718,7.4586239,6.2799754,7.7716246,6.2686448,8.1548929C6.2429471,9.0240583,6.1984725,9.892808,6.1352191,10.760531C6.1352191,10.760531,6.12888,10.847497,6.12888,10.847497C4.4660754,9.6737814,3.0090556,8.2296925,1.8193145,6.5734711C1.8193145,6.5734711,1.6734509,6.3704171,1.6734509,6.3704171C1.6734509,6.3704171,1.8193126,6.1673656,1.8193126,6.1673656C3.0090537,4.5111437,4.4660754,3.0670545,6.1288791,1.8933381C6.1288791,1.8933381,6.1352181,1.9803017,6.1352181,1.9803017C6.1916804,2.7548637,6.2331805,3.5302391,6.2597184,4.3059998C6.2735381,4.7099967,6.6050467,5.0303588,7.0092797,5.0303588C7.0092797,5.0303588,8.1336679,5.0303583,8.1336679,5.0303583C11.054529,5.0303564,13.742299,6.5730257,15.222136,9.0592937Z" fill-rule="evenodd" fill="#000000" fill-opacity="1"/></svg>