<svg xmlns="http://www.w3.org/2000/svg" xmlns:xlink="http://www.w3.org/1999/xlink" fill="none" version="1.1" width="17.500015258789062" height="19.33014488220215" viewBox="0 0 17.500015258789062 19.33014488220215"><path d="M1.5000048,7.25C1.5000048,3.2459354,4.7459402,0,8.7500048,0C12.754069,0,16.000004,3.2459354,16.000004,7.25C16.000004,8.7181273,15.563623,10.084333,14.813495,11.225985L17.399532,15.705132C17.546745,15.960113,17.531151,16.277641,17.359663,16.51697C17.188175,16.756298,16.892519,16.873152,16.603746,16.815731L13.98763,16.295544L13.130067,18.821262C13.035408,19.100056,12.786382,19.297674,12.493373,19.326523C12.200364,19.355371,11.91758,19.210112,11.770367,18.955133L9.1905928,14.486833C9.0448484,14.495569,8.8979445,14.5,8.7500048,14.5C8.602066,14.5,8.455163,14.495569,8.3094196,14.486833L5.7296476,18.95513C5.5825825,19.209852,5.3001981,19.355101,5.0074525,19.326599C4.7147059,19.298098,4.4656425,19.101109,4.3704729,18.8228L3.5085382,16.302202L0.89466989,16.816044C0.60606354,16.87278,0.31093323,16.755579,0.13987719,16.516304C-0.031178907,16.277029,-0.046582535,15.959853,0.10048233,15.70513L2.686516,11.225987C1.936386,10.084336,1.5000048,8.7181292,1.5000048,7.25ZM8.7500048,1.5C5.5743675,1.5,3.0000048,4.0743628,3.0000048,7.25C3.0000048,10.425637,5.5743675,13,8.7500048,13C11.925642,13,14.500005,10.425637,14.500005,7.25C14.500005,4.0743628,11.925642,1.5,8.7500048,1.5ZM5.5000048,7.25C5.5000048,5.4550743,6.9550791,4,8.7500048,4C10.54493,4,12.000005,5.4550743,12.000005,7.25C12.000005,9.0449257,10.54493,10.5,8.7500048,10.5C6.9550791,10.5,5.5000048,9.0449257,5.5000048,7.25ZM8.7500048,5.5C7.7835064,5.5,7.0000048,6.2835016,7.0000048,7.25C7.0000048,8.2164984,7.7835064,9,8.7500048,9C9.7165031,9,10.500005,8.2164984,10.500005,7.25C10.500005,6.2835016,9.7165031,5.5,8.7500048,5.5ZM10.766251,14.215952L12.241839,16.771748L12.778703,15.190561C12.899696,14.834208,13.266043,14.622699,13.63515,14.696092L15.272928,15.021747L13.793106,12.458619C12.954042,13.271183,11.919232,13.882818,10.766251,14.215952ZM3.7069051,12.458621C4.5459695,13.271185,5.5807796,13.88282,6.7337613,14.215953L5.2557898,16.775875L4.7159925,15.197318C4.5946264,14.842402,4.2297192,14.631722,3.8616691,14.704074L2.2247009,15.025874L3.7069051,12.458621Z" fill-rule="evenodd" fill="#000000" fill-opacity="1"/></svg>