<svg xmlns="http://www.w3.org/2000/svg" xmlns:xlink="http://www.w3.org/1999/xlink" fill="none" version="1.1" width="14.963554382324219" height="19.331987380981445" viewBox="0 0 14.963554382324219 19.331987380981445"><path d="M6.0145154,1.5337335C5.7670307,1.5697942,5.5246272,1.634746,5.2922692,1.7272587C3.9090493,2.2779839,3.0884392,3.7099681,3.3126073,5.1818175L3.343648,5.3856254C3.3821099,5.6381602,3.448427,5.8856592,3.5413857,6.1235924L4.3609395,8.2212896C6.588315,8.0659075,8.824398,8.0770741,11.050522,8.2547903L12.546654,8.3742294C13.629381,8.4606657,14.513485,9.2745695,14.689001,10.346467C15.055073,12.58212,15.055073,14.862434,14.689001,17.098087C14.513485,18.169983,13.629381,18.983887,12.546654,19.070324L11.050524,19.189762C8.6751404,19.379395,6.288415,19.379395,3.9130318,19.189762L2.4169018,19.070324C1.3341749,18.983887,0.45006928,18.169985,0.27455384,17.098087C-0.091517955,14.862434,-0.091517955,12.58212,0.27455384,10.346467C0.45006925,9.2745686,1.3341742,8.4606657,2.4169016,8.3742294L2.7983775,8.3437757L2.1442313,6.6694489C2.0109632,6.328341,1.9158889,5.9735188,1.8607485,5.6114764L1.8297077,5.4076686C1.5004524,3.2458334,2.705755,1.1425529,4.7374096,0.33365512C5.0786948,0.19777346,5.4347334,0.10237315,5.7982359,0.049407654C7.9621491,-0.26589373,10.057612,0.95295048,10.853386,2.9897823L10.928408,3.1818049C11.061677,3.5229137,11.156751,3.8777342,11.21189,4.2397771L11.428514,5.6620884L9.9456139,5.8879395L9.7289906,4.4656281C9.6905289,4.2130923,9.6242123,3.9655948,9.5312538,3.7276616L9.4562321,3.5356393C8.9144421,2.148896,7.487781,1.3190655,6.0145154,1.5337335ZM4.0324011,9.7500334C6.3283324,9.5667448,8.6352215,9.5667448,10.931154,9.7500334L12.427284,9.8694725C12.822214,9.901,13.144695,10.197875,13.208714,10.588853C13.548502,12.663984,13.548502,14.780569,13.208714,16.855701C13.144695,17.246679,12.822214,17.543552,12.427286,17.575081L10.931156,17.694519C8.6352253,17.877808,6.328331,17.877808,4.0324001,17.694519L2.5362701,17.575081C2.141341,17.543552,1.8188604,17.246677,1.7548406,16.855701C1.4150531,14.780569,1.4150531,12.663984,1.7548406,10.588853C1.8188605,10.197874,2.1413407,9.901,2.5362697,9.8694725L4.0324011,9.7500334ZM7.4817777,12.222277C6.6533508,12.222277,5.9817777,12.893849,5.9817777,13.722277C5.9817777,14.550704,6.6533508,15.222277,7.4817777,15.222277C8.3102045,15.222277,8.9817772,14.550704,8.9817772,13.722277C8.9817772,12.893849,8.3102045,12.222277,7.4817777,12.222277Z" fill-rule="evenodd" fill="#000000" fill-opacity="1"/></svg>