<svg xmlns="http://www.w3.org/2000/svg" xmlns:xlink="http://www.w3.org/1999/xlink" fill="none" version="1.1" width="20.728816986083984" height="15.1104097366333" viewBox="0 0 20.728816986083984 15.1104097366333"><path d="M5.3337636,0.19648696C8.682415,-0.065495774,12.046406,-0.065495595,15.395058,0.19648711L17.635756,0.37178883C18.998322,0.47838968,20.113008,1.4995933,20.338245,2.8476367C20.859009,5.9644117,20.859009,9.145998,20.338245,12.262773C20.113008,13.610816,18.998323,14.63202,17.635756,14.738621L15.395054,14.913922C12.046407,15.175905,8.6824112,15.175905,5.3337636,14.913922L3.0930634,14.738621C1.7304958,14.63202,0.61581028,13.610816,0.39057326,12.262773C-0.13019109,9.145998,-0.13019109,5.9644117,0.39057332,2.8476367C0.61581039,1.4995933,1.7304957,0.47838971,3.0930629,0.37178886L5.3337636,0.19648696ZM15.278062,1.6919177C12.007289,1.4360278,8.7215328,1.4360276,5.4507589,1.6919175L3.2100585,1.8672194C2.534447,1.920076,1.9817448,2.4264264,1.8700639,3.0948365C1.3766454,6.047946,1.3766454,9.0624638,1.8700638,12.015573C1.9817448,12.683983,2.5344474,13.190333,3.2100587,13.243191L5.4507589,13.418492C8.7215271,13.674381,12.00729,13.674381,15.278059,13.418492L17.518761,13.243191C18.19437,13.190333,18.747074,12.683983,18.858755,12.015573C19.352173,9.0624638,19.352173,6.047946,18.858755,3.0948365C18.747074,2.4264266,18.19437,1.920076,17.518759,1.8672194L15.278062,1.6919177ZM7.9948559,3.9025564C8.2299871,3.7694273,8.5185537,3.773068,8.7502518,3.9120867L13.750252,6.9120865C13.976156,7.0476294,14.11438,7.2917595,14.11438,7.5552063C14.11438,7.8186531,13.976156,8.0627832,13.750252,8.1983261L8.7502518,11.198326C8.5185537,11.337345,8.2299871,11.340985,7.9948559,11.207856C7.7597241,11.074727,7.6143799,10.825411,7.6143799,10.555206L7.6143799,4.5552063C7.6143799,4.2850022,7.7597241,4.0356855,7.9948559,3.9025564ZM9.1143799,9.2305632L11.906642,7.5552063L9.1143799,5.8798494L9.1143799,9.2305632Z" fill-rule="evenodd" fill="#000000" fill-opacity="1"/></svg>