<svg xmlns="http://www.w3.org/2000/svg" xmlns:xlink="http://www.w3.org/1999/xlink" fill="none" version="1.1" width="19.893146514892578" height="18.52796173095703" viewBox="0 0 19.893146514892578 18.52796173095703"><path d="M7.6762066,1.1982484C8.7681799,-0.39941978,11.124969,-0.39941335,12.216941,1.1982512L12.648864,1.830198C15.354907,5.7894135,17.679863,9.9960279,19.592594,14.393701L19.68281,14.60112C20.356863,16.150879,19.338503,17.910599,17.658958,18.098314C12.533327,18.671179,7.3598194,18.671179,2.2341893,18.098314C0.55464554,17.910599,-0.46371853,16.150883,0.21033667,14.601122L0.30055135,14.393704C2.2132809,9.9960327,4.5382428,5.7894077,7.2442851,1.8301933L7.6762066,1.1982484ZM10.978559,2.0446606C10.482206,1.3184466,9.4109392,1.3184474,8.9145889,2.0446575L8.4826679,2.6766026C5.8300714,6.5576205,3.5510285,10.681163,1.6760765,14.991977L1.5858618,15.199395C1.3144432,15.823429,1.7245028,16.532009,2.400799,16.607595C7.4157,17.168083,12.477447,17.168083,17.492348,16.607595C18.168642,16.532009,18.578703,15.823429,18.307283,15.199393L18.217068,14.991973C16.342115,10.681158,14.063078,6.5576258,11.410481,2.6766074L10.978559,2.0446606ZM9.9465942,7.205616C10.498879,7.205616,10.946594,6.7579007,10.946594,6.205616C10.946594,5.6533313,10.498879,5.205616,9.9465942,5.205616C9.394309,5.205616,8.9465942,5.6533313,8.9465942,6.205616C8.9465942,6.7579007,9.394309,7.205616,9.9465942,7.205616ZM10.696594,9.705616C10.696594,9.2914028,10.360807,8.955616,9.9465942,8.955616C9.5323811,8.955616,9.1965942,9.2914028,9.1965942,9.705616L9.1965942,14.705616C9.1965942,15.11983,9.5323811,15.455616,9.9465942,15.455616C10.360808,15.455616,10.696594,15.119829,10.696594,14.705616L10.696594,9.705616Z" fill-rule="evenodd" fill="#000000" fill-opacity="1"/></svg>