<svg xmlns="http://www.w3.org/2000/svg" xmlns:xlink="http://www.w3.org/1999/xlink" fill="none" version="1.1" width="17.920473098754883" height="17.269142150878906" viewBox="0 0 17.920473098754883 17.269142150878906"><path d="M3.9602661,0C4.3744798,0,4.7102661,0.33578643,4.7102661,0.75C4.7102661,0.75,4.7102661,2.4176283,4.7102661,2.4176283C7.5380006,2.165802,10.382532,2.1658034,13.210266,2.4176335C13.210266,2.4176335,13.210266,0.75,13.210266,0.75C13.210266,0.33578643,13.546053,0,13.960266,0C14.374479,0,14.710266,0.33578643,14.710266,0.75C14.710266,0.75,14.710266,2.5664351,14.710266,2.5664351C16.20331,2.7775438,17.382833,3.9584687,17.582508,5.4648352C17.582508,5.4648352,17.66906,6.1177874,17.66906,6.1177874C18.033094,8.8641167,18.001654,11.648442,17.575697,14.385851C17.364687,15.741899,16.263027,16.783455,14.897285,16.91814C14.897285,16.91814,13.704281,17.035789,13.704281,17.035789C10.549236,17.346928,7.3712373,17.346928,4.2161922,17.035789C4.2161922,17.035789,3.0231881,16.91814,3.0231881,16.91814C1.6574463,16.783455,0.55578744,15.741899,0.34477758,14.385851C-0.081180483,11.648444,-0.11262119,8.8641186,0.25141442,6.1177907C0.25141442,6.1177907,0.33796573,5.4648371,0.33796573,5.4648371C0.5376426,3.9584515,1.7171928,2.7775123,3.2102661,2.5664265C3.2102661,2.5664265,3.2102661,0.75,3.2102661,0.75C3.2102661,0.33578643,3.5460525,0,3.9602661,0ZM4.4054308,3.9528046C7.434618,3.6540785,10.485854,3.6540782,13.51504,3.9528043C13.51504,3.9528043,14.420495,4.0420966,14.420495,4.0420966C15.287243,4.1275716,15.981068,4.7985411,16.095514,5.6619415C16.095514,5.6619415,16.182066,6.3148937,16.182066,6.3148937C16.212303,6.543004,16.239662,6.7713909,16.264145,7C16.264145,7,1.6563284,7,1.6563284,7C1.6808113,6.7713919,1.7081709,6.5430059,1.7384076,6.3148966C1.7384076,6.3148966,1.8249589,5.6619434,1.8249589,5.6619434C1.9394059,4.7985425,2.6332302,4.1275716,3.4999781,4.0420966C3.4999781,4.0420966,4.4054308,3.9528046,4.4054308,3.9528046ZM1.5370969,8.5C1.4389172,10.388077,1.5356456,12.283216,1.8269408,14.155216C1.9327806,14.835393,2.4853587,15.357824,3.170398,15.425381C3.170398,15.425381,4.3634019,15.54303,4.3634019,15.54303C7.4205441,15.844513,10.499928,15.844513,13.557072,15.54303C13.557072,15.54303,14.750075,15.425381,14.750075,15.425381C15.435114,15.357824,15.987693,14.835393,16.093533,14.155217C16.384827,12.283216,16.481556,10.388077,16.383377,8.5C16.383377,8.5,1.5370969,8.5,1.5370969,8.5Z" fill-rule="evenodd" fill="#000000" fill-opacity="1"/></svg>